<svg xmlns="http://www.w3.org/2000/svg" width="auto" height="1em" fill="currentColor" viewBox="0 0 105 105">
    <path d="M83.65 41.272s-3.467-.173-7.367-.345c-.607-4.272-2.557-8.069-5.418-11.046-2.643-2.762-6.067-4.79-9.88-5.696a20 20 0 0 0-4.811-.604H39.706c-11.225 0-20.37 9.104-20.37 20.237V69.62c0 11.175 9.145 20.28 20.37 20.28h16.468c11.224 0 20.325-9.105 20.325-20.28V57.237l9.231-11.348c1.43-1.683.217-4.574-2.08-4.617m-7.15 6.947-7.585 9.32v12.082c0 7.033-5.72 12.729-12.741 12.729H39.706c-7.064 0-12.785-5.696-12.785-12.73V43.819c0-6.99 5.72-12.686 12.785-12.686h16.468c1.95 0 3.814.432 5.46 1.208l2.817-3.452c-.13.69-.26 1.338-.39 1.899 0 .043-.216 1.122-.563 2.632 3.294 2.33 5.417 6.127 5.417 10.399V47.7l7.584-.388h.78z"/>
    <path d="M38.319 76.137c2.92 0 5.287-2.357 5.287-5.264s-2.367-5.265-5.287-5.265-5.287 2.357-5.287 5.264 2.367 5.265 5.287 5.265M57.17 37.863l-6.543 8.026c-2.427.13-4.854.086-7.281-.043-1.82-.086-3.597-.216-5.374-.388-4.377-.561-4.334-7.034 0-7.551a97 97 0 0 1 12.265-.518c2.297.043 4.593.172 6.934.474"/>
    <path d="M63.498 33.42c-.91 4.012-2.557 11.218-2.34 11.003.087 2.027 1.82 3.538 3.857 3.451l3.9-.172v-3.883c0-4.272-2.123-8.07-5.417-10.4m1.82 28.564c-2.47 3.02-5.894 7.206-9.1 11.176.173-.69.303-1.338.433-1.899 0-.13 3.25-14.066 2.903-13.678-.13-1.985-1.863-3.538-3.813-3.409l-12.352.604 7.238-8.888 6.544-8.026 4.464-5.523a12.8 12.8 0 0 0-5.461-1.208h-.867l-5.07 6.256-6.89 8.457-8.365 10.27c-1.517 1.769-.087 4.703 2.21 4.66l14.172.733c-.737 5.092-1.777 12.039-2.167 15.016-.217 1.553-.65 4.358-.824 5.825h7.714c4.03-4.919 9.015-11.132 12.828-15.792V57.54zm1.387-44.831-5.72 7.033c3.813.906 7.237 2.934 9.88 5.695.52-3.236 1.127-7.421 1.517-10.096.737-3.28-3.727-5.308-5.677-2.632"/>
</svg>
