<svg xmlns="http://www.w3.org/2000/svg" width="auto" height="1em" fill="currentColor" viewBox="0 0 105 105">
    <path d="M70.614 85.531H35.16c-9.68.085-15.661-8.111-12.305-18.912.86-3.33 6.067-2.903 6.368.47.43 2.945.516 6.958 2.28 8.88 1.936 1.75 5.98 1.835 8.95 2.262h25.04c9.38-.769 10.24-1.921 11.058-11.142.344-3.416 5.55-3.757 6.41-.47 3.357 10.843-2.624 18.997-12.347 18.912"/>
    <path d="M41.528 47.707 55.942 61.24h-6.067L64.29 47.707a3.814 3.814 0 0 1 5.335.128c1.377 1.451 1.377 3.714 0 5.123l-13.64 14.301c-1.634 1.75-4.43 1.708-6.066 0L36.28 52.958c-3.27-3.458 1.85-8.538 5.335-5.294z"/>
    <path d="M56.673 23.032a393 393 0 0 1 0 41.538c-.129 2.049-1.936 3.629-4.001 3.5a3.78 3.78 0 0 1-3.528-3.5c-.43-6.916-.474-13.832-.517-20.748.043-6.916.087-13.832.517-20.748.129-2.049 1.936-3.628 4.001-3.5a3.78 3.78 0 0 1 3.528 3.5z"/>
</svg>
