<svg xmlns="http://www.w3.org/2000/svg" width="auto" height="1em" fill="currentColor" viewBox="0 0 105 105">
    <path d="M59.948 26.378c-4.406 4.682-24.743 27.988-29.392 33.236-1.356 1.287-2.518 2.881-3.244 4.63-.097.31-.194.567-.29.824-.195.411-.291.874-.437 1.338-1.404 4.321-2.227 9.003-.871 12.913.339.926 1.065 1.698 1.937 2.058 3.776 1.492 8.231.566 12.347-.977h.194c.436-.206.968-.36 1.404-.566.727-.309 1.356-.72 1.986-1.235 1.452-1.132 6.633-6.688 8.135-8.026l24.84-24.644c11.428-11.936-4.212-30.304-16.56-19.55zM46.487 64.76l-6.15 6.277c-.58.617-1.259 1.44-2.034 1.698-2.856 1.235-5.81-2.315-4.357-5.197.29-.668 1.597-1.903 2.033-2.418C40 60.695 61.74 36.874 65.275 33.118c4.019-3.447 9.103 2.675 5.569 6.534L46.535 64.811z"/>
</svg>
