<svg xmlns="http://www.w3.org/2000/svg" width="auto" height="1em" fill="currentColor" viewBox="0 0 105 105">
    <path d="M41.85 64.45a119.3 119.3 0 0 1 23.306 0c4.563.491 4.518 7.336 0 7.828-7.784.76-15.567.76-23.307 0-2.147-.269-3.712-2.237-3.444-4.384.224-1.834 1.7-3.221 3.444-3.445M62.92 27.635c.805 9.753 2.013 10.647 11.63 11.497 3.58.358 3.937 5.816.493 6.666-13.42 4.16-22.994-5.369-18.789-18.834.984-3.623 6.442-2.997 6.665.671"/>
    <path d="M61.98 87.757h-17c-11.586 0-20.98-9.44-20.98-20.98V39.98C24 28.438 33.439 19 44.98 19h17c11.586 0 20.98 9.439 20.98 20.98v26.752c0 11.586-9.439 20.98-20.98 20.98zm-17-60.929c-7.246 0-13.151 5.906-13.151 13.153v26.75c0 7.248 5.904 13.153 13.151 13.153h17c7.247 0 13.152-5.905 13.152-13.152V39.98c0-7.248-5.906-13.153-13.153-13.153z"/>
</svg>
