<svg xmlns="http://www.w3.org/2000/svg" width="auto" height="1em" fill="currentColor" viewBox="0 0 105 105">
    <path d="m57.11 63.679 13.52-14.212v5.982l-13.52-14.17a3.726 3.726 0 0 1 .129-5.26c1.45-1.358 3.71-1.358 5.117 0l14.287 13.448c1.748 1.612 1.705 4.37 0 5.982L62.356 68.897c-3.454 3.224-8.529-1.824-5.288-5.26z"/>
    <path d="M32.462 48.788a398 398 0 0 1 41.494 0c2.047.127 3.625 1.91 3.497 3.945-.128 1.91-1.663 3.352-3.497 3.48-6.909.423-13.817.466-20.726.508-6.909-.042-13.817-.084-20.726-.509-2.047-.127-3.625-1.909-3.497-3.945.128-1.91 1.663-3.352 3.497-3.479z"/>
</svg>
