<svg xmlns="http://www.w3.org/2000/svg" width="auto" height="1em" fill="currentColor" viewBox="0 0 105 105">
    <path d="M83.096 41.39H22.578c-2.333 0-4.241-1.94-4.241-4.314s1.908-4.314 4.24-4.314h60.519c2.332 0 4.24 1.941 4.24 4.314s-1.907 4.315-4.24 4.315"/>
    <path d="M52.816 41.391c-2.333 0-4.241-1.941-4.241-4.314V17.014c0-2.373 1.908-4.315 4.24-4.315s4.242 1.942 4.242 4.315v20.063c0 2.373-1.909 4.314-4.241 4.314m30.28 30.245H22.578c-2.333 0-4.241-1.942-4.241-4.315s1.908-4.314 4.24-4.314h60.519c2.332 0 4.24 1.941 4.24 4.314s-1.907 4.315-4.24 4.315"/>
    <path d="M52.816 91.699c-2.333 0-4.241-1.942-4.241-4.315V67.321c0-2.373 1.908-4.314 4.24-4.314s4.242 1.941 4.242 4.314v20.063c0 2.373-1.909 4.315-4.241 4.315"/>
    <path d="M22.578 71.636c-.594 0-1.23-.13-1.781-.388-2.121-.992-3.012-3.581-2.036-5.738L32.67 35.22a4.26 4.26 0 0 1 3.86-2.502c1.653 0 3.138.949 3.859 2.502l13.528 29.34c.976 2.157.085 4.702-2.035 5.738-2.121 1.035-4.623.086-5.64-2.071l-9.67-21.012-10.136 21.961c-.721 1.553-2.248 2.502-3.86 2.502zm46.565.001c-1.654 0-3.138-.95-3.859-2.503L51.755 39.795c-.975-2.157-.084-4.703 2.036-5.738s4.665-.087 5.64 2.07l9.67 21.013 10.093-21.918c.976-2.158 3.52-3.107 5.64-2.071 2.121.992 3.012 3.58 2.036 5.738L72.918 69.134a4.26 4.26 0 0 1-3.86 2.503z"/>
</svg>
