<svg xmlns="http://www.w3.org/2000/svg" width="auto" height="1em" fill="currentColor" viewBox="0 0 105 105">
    <path d="M20.211 61.072c-1.755 0-3.211-1.47-3.211-3.243V47.277C17 27.773 32.712 11.9 51.979 11.9a34 34 0 0 1 15.54 3.72c1.585.778 2.227 2.724 1.456 4.367-.77 1.6-2.697 2.25-4.324 1.47-3.981-1.989-8.22-3.026-12.672-3.026-15.756-.044-28.557 12.887-28.557 28.802v10.551c0 1.774-1.456 3.244-3.211 3.244zm63.579.001c-1.756 0-3.212-1.47-3.212-3.244V47.277a28.86 28.86 0 0 0-4.752-15.914 3.28 3.28 0 0 1 .899-4.498c1.498-.995 3.468-.562 4.453.908A35.4 35.4 0 0 1 87 47.277v10.552c0 1.773-1.456 3.243-3.21 3.243"/>
    <path d="M73 61.072c-1.755 0-3.21-1.47-3.21-3.243V47.277c0-9.904-7.964-17.947-17.768-17.947s-17.768 8.044-17.768 17.947v10.552c0 1.773-1.456 3.243-3.211 3.243s-3.211-1.47-3.211-3.243V47.277c0-13.493 10.875-24.434 24.19-24.434s24.19 10.984 24.19 24.434v10.552c0 1.773-1.456 3.243-3.212 3.243"/>
    <path d="M52.107 70.802c-.984 0-1.926-.13-2.825-.346-2.355-.346-4.753-1.643-6.722-3.632a13.8 13.8 0 0 1-3.682-6.92c-.086-.562-.171-1.08-.214-1.643-.086-.432-.086-.822-.086-1.038V46.931c.214-2.768.985-5.017 2.27-6.963 1.327-2.162 3.51-3.979 5.993-5.017 2.398-.994 5.052-1.254 7.75-.735 2.525.476 4.88 1.73 6.807 3.59 1.97 2.075 3.253 4.54 3.724 7.049.086.562.172 1.038.215 1.513.085.476.085.865.085 1.081v10.293c-.128 2.595-.899 4.973-2.269 7.006-1.627 2.335-3.725 4.065-5.994 5.016-1.67.65-3.425.952-5.052.952zM45 57.093c.043.217.086.476.086.692 0 .346.043.649.128.952a6.94 6.94 0 0 0 1.927 3.503c.685.692 1.84 1.6 3.425 1.86 1.456.345 2.911.216 4.281-.303 1.413-.606 2.483-1.817 3.126-2.682a6.76 6.76 0 0 0 1.113-3.46v-9.99a4 4 0 0 1-.086-.734c0-.303-.043-.563-.128-.865-.257-1.255-.942-2.595-1.97-3.676a7.55 7.55 0 0 0-3.51-1.817c-1.456-.302-2.826-.173-4.068.346a6.9 6.9 0 0 0-3.125 2.595c-.728 1.081-1.113 2.249-1.242 3.633v9.903z"/>
    <path d="M51.979 92.901C32.713 92.901 17 77.03 17 57.569V47.017c0-1.773 1.456-3.244 3.211-3.244s3.211 1.47 3.211 3.244v10.552c0 15.915 12.801 28.845 28.557 28.845s28.556-12.93 28.556-28.845V47.017c0-1.773 1.456-3.244 3.211-3.244s3.211 1.47 3.211 3.244v10.552c0 19.504-15.712 35.332-34.978 35.332"/>
    <path d="M51.979 82.004c-2.012 0-3.982-.26-5.951-.736-1.713-.432-2.74-2.205-2.312-3.935s2.226-2.768 3.896-2.335c1.413.346 2.868.562 4.367.562 9.804 0 17.767-8.044 17.767-17.947V47.06c0-1.773 1.456-3.244 3.211-3.244 1.756 0 3.211 1.47 3.211 3.244v10.552c0 13.493-10.874 24.434-24.19 24.434zM33.612 71.019a3.25 3.25 0 0 1-2.826-1.687 24.7 24.7 0 0 1-3.04-11.806V46.974c0-1.773 1.456-3.243 3.211-3.243s3.211 1.47 3.211 3.243v10.552c0 3.027.77 6.011 2.226 8.65.857 1.556.3 3.545-1.241 4.41q-.771.39-1.541.39zm28.599-20.282a3.216 3.216 0 0 1-3.21-3.07 3.42 3.42 0 0 1 .385-2.423c.599-.951 1.626-1.556 2.74-1.556 1.755 0 3.296 1.47 3.296 3.243v.562c0 1.773-1.455 3.244-3.21 3.244"/>
</svg>
