<svg xmlns="http://www.w3.org/2000/svg" width="auto" height="1em" fill="currentColor" viewBox="0 0 105 105">
    <path d="m61.172 28.076.562 19.918-4.324-4.32 19.932.561c2.075.043 3.718 1.815 3.675 3.889a3.757 3.757 0 0 1-3.675 3.672l-19.932.519a4.18 4.18 0 0 1-4.323-4.32l.562-19.919c.13-4.796 7.436-4.796 7.566 0z"/>
    <path d="M55.465 44.58c3.415-4.018 7.133-7.777 10.808-11.535 3.762-3.673 7.523-7.389 11.544-10.802a3.79 3.79 0 0 1 5.362.475c1.21 1.426 1.167 3.5 0 4.883-3.416 4.018-7.134 7.777-10.81 11.535-3.76 3.673-7.522 7.389-11.543 10.802a3.79 3.79 0 0 1-5.361-.475c-1.211-1.426-1.168-3.5 0-4.883m-10.55 32.016-.562-19.918 4.324 4.32-19.932-.561c-2.075-.044-3.718-1.815-3.675-3.889a3.757 3.757 0 0 1 3.675-3.672l19.932-.519A4.18 4.18 0 0 1 53 56.677l-.562 19.919c-.13 4.795-7.436 4.795-7.566 0z"/>
    <path d="M50.623 60.09c-3.416 4.019-7.134 7.778-10.81 11.537-3.76 3.672-7.522 7.388-11.543 10.801a3.79 3.79 0 0 1-5.362-.475c-1.21-1.426-1.167-3.5 0-4.882 3.416-4.019 7.134-7.777 10.81-11.536 3.76-3.673 7.522-7.388 11.543-10.802a3.79 3.79 0 0 1 5.361.476c1.211 1.425 1.168 3.5 0 4.882"/>
</svg>
