<svg xmlns="http://www.w3.org/2000/svg" width="auto" height="1em" fill="currentColor" viewBox="0 0 105 105">
    <path d="M6.48 40c2.744-.58 5.487-.464 8.23-.503 1.353 0 2.512.773 3.053 1.895L31.48 68.806l-6.607 1.546.116-26.176a3.407 3.407 0 0 1 3.4-3.403c3.787 0 7.573 0 11.36.425 1.623.155 2.82 1.624 2.666 3.287a3 3 0 0 1-2.666 2.668c-3.787.386-7.573.425-11.36.425l3.4-3.402.116 26.176c.078 3.635-5.1 4.834-6.607 1.547L11.774 44.408l3.053 1.894c-2.744 0-5.487.078-8.23-.502-3.092-.542-3.053-5.259 0-5.8zm62.249 19.448c-1.932-24.089 27.202-24.823 26.507-.58l-3.71-3.712c3.4.619 10.162-1.121 10.162 3.983-.154 1.624-1.429 2.861-2.975 2.977-3.555-.116-10.085 2.359-10.858-2.784-.231-4.253-1.738-10.169-6.26-10.362-4.559.464-5.95 6.109-6.375 10.672-.425 3.905-6.298 3.711-6.491-.194"/>
    <path d="M60.924 77.7h-7.38c-7.96 0-14.413-6.458-14.413-14.423V41.12c0-7.965 6.453-14.422 14.412-14.422h7.38c7.96 0 14.413 6.457 14.413 14.422v22.117c0 7.965-6.453 14.423-14.412 14.423zm-7.38-44.234c-4.212 0-7.651 3.441-7.651 7.655v22.117c0 4.215 3.439 7.656 7.65 7.656h7.38c4.212 0 7.651-3.441 7.651-7.656V41.121c0-4.214-3.439-7.655-7.65-7.655z"/>
</svg>
