<svg xmlns="http://www.w3.org/2000/svg" width="auto" height="1em" fill="currentColor" viewBox="0 0 105 105">
    <path d="M52.028 73a4.55 4.55 0 0 1-2.075-.476c-.615-.314-1.095-.761-1.378-1.285a2.25 2.25 0 0 1-.211-1.657c.145-.556.502-1.067 1.026-1.466l19.69-15.11-19.69-15.11c-.608-.546-.926-1.25-.89-1.968.036-.719.423-1.401 1.085-1.91s1.549-.806 2.484-.834 1.849.217 2.56.685l22.29 17.137c.693.536 1.081 1.26 1.081 2.014 0 .755-.388 1.479-1.08 2.014L54.629 72.172c-.692.527-1.626.825-2.601.828"/>
    <path d="M29.737 73a4.56 4.56 0 0 1-2.076-.476c-.614-.314-1.094-.761-1.377-1.285a2.25 2.25 0 0 1-.211-1.657c.145-.556.502-1.067 1.026-1.466l19.69-15.11-19.69-15.11c-.7-.538-1.093-1.267-1.093-2.028 0-.76.393-1.49 1.093-2.028s1.648-.84 2.638-.84 1.938.302 2.638.84l22.29 17.138c.693.535 1.081 1.259 1.081 2.014s-.388 1.478-1.08 2.013L32.375 72.143c-.344.27-.755.485-1.208.632s-.939.223-1.43.225"/>
</svg>
