<svg xmlns="http://www.w3.org/2000/svg" height="1em" fill="none" stroke="currentColor" viewBox="0 0 124 124">
    <path stroke-miterlimit="10" stroke-width="8" d="M74.03 33h-24.8A8.23 8.23 0 0 0 41 41.23v40.684a8.23 8.23 0 0 0 8.23 8.23h24.8a8.23 8.23 0 0 0 8.23-8.23V41.23A8.23 8.23 0 0 0 74.03 33Z"/>
    <path fill="currentColor" d="M69.106 44.14H54.155a3.163 3.163 0 0 0-3.163 3.163v6.973a3.163 3.163 0 0 0 3.163 3.162h14.95a3.163 3.163 0 0 0 3.163-3.162v-6.973a3.163 3.163 0 0 0-3.162-3.162Z"/>
</svg>
