<svg xmlns="http://www.w3.org/2000/svg" height="1em" fill="none" viewBox="0 0 124 124">
    <path stroke="currentColor" stroke-miterlimit="10" stroke-width="7" d="M80.022 40.361h18.49a6.16 6.16 0 0 1 4.342 1.789 6.1 6.1 0 0 1 1.798 4.317v30.166a6.1 6.1 0 0 1-1.798 4.317 6.17 6.17 0 0 1-4.341 1.788H80.022"/>
    <path fill="currentColor" d="M94.865 48.622H83.67a2.34 2.34 0 0 0-2.348 2.334v5.208a2.34 2.34 0 0 0 2.348 2.334h11.195a2.34 2.34 0 0 0 2.348-2.334v-5.208a2.34 2.34 0 0 0-2.348-2.334"/>
    <path stroke="currentColor" stroke-miterlimit="10" stroke-width="7" d="M44.63 82.738H26.14a6.17 6.17 0 0 1-4.342-1.788A6.1 6.1 0 0 1 20 76.633V46.467c0-1.62.647-3.173 1.798-4.317a6.16 6.16 0 0 1 4.341-1.789H44.63"/>
    <path fill="currentColor" d="M40.982 48.622H29.787a2.34 2.34 0 0 0-2.347 2.334v5.208a2.34 2.34 0 0 0 2.347 2.334h11.195a2.34 2.34 0 0 0 2.348-2.334v-5.208a2.34 2.34 0 0 0-2.348-2.334"/>
    <path stroke="currentColor" stroke-miterlimit="10" stroke-width="9" d="M74.605 33H50.047c-4.667 0-8.45 3.762-8.45 8.404v40.293c0 4.642 3.783 8.404 8.45 8.404h24.558c4.667 0 8.45-3.762 8.45-8.404V41.404c0-4.642-3.783-8.404-8.45-8.404Z"/>
    <path fill="currentColor" d="M69.838 44.133H54.814a3.17 3.17 0 0 0-3.178 3.16v6.967a3.17 3.17 0 0 0 3.178 3.16h15.024a3.17 3.17 0 0 0 3.178-3.16v-6.967a3.17 3.17 0 0 0-3.178-3.16"/>
</svg>
