<svg xmlns="http://www.w3.org/2000/svg" width="auto" height="1em" fill="currentColor" viewBox="0 0 124 124">
    <path d="M79.226 78.701a3.36 3.36 0 0 1-.977 2.417 3.4 3.4 0 0 1-2.414 1.004h-28.58a3.4 3.4 0 0 1-2.413-1.004 3.38 3.38 0 0 1-.978-2.417c0-.6.156-1.189.453-1.71l6.692-11.48a3.54 3.54 0 0 0 .452-1.665v-11.84c0-2.662 1.063-5.215 2.954-7.098a10.1 10.1 0 0 1 7.13-2.94c2.675 0 5.24 1.057 7.13 2.94a10.02 10.02 0 0 1 2.954 7.098v11.795c.011.583.167 1.155.452 1.665l6.693 11.524c.297.522.453 1.111.452 1.711m7.914 0a11.17 11.17 0 0 0-1.493-5.627l-6.104-10.489V52.006c0-4.775-1.906-9.355-5.298-12.732A18.13 18.13 0 0 0 61.455 34a18.13 18.13 0 0 0-12.79 5.274 17.97 17.97 0 0 0-5.298 12.732v10.58l-5.924 10.488a11.26 11.26 0 0 0 .012 11.275 11.3 11.3 0 0 0 4.142 4.13A11.4 11.4 0 0 0 47.256 90h28.579a11.38 11.38 0 0 0 7.996-3.325A11.27 11.27 0 0 0 87.14 78.7"/>
    <path d="m75.337 58.624 36.176.81a2.54 2.54 0 0 1 1.823.77 2.5 2.5 0 0 1 .709 1.841 2.56 2.56 0 0 1-.754 1.77c-.473.47-1.11.74-1.778.751l-36.176.81a3.4 3.4 0 0 1-2.398-.988 3.37 3.37 0 0 1 0-4.775 3.4 3.4 0 0 1 2.398-.989m4.703 9.814 15.284.81a2.54 2.54 0 0 1 1.799.833 2.52 2.52 0 0 1 .643 1.868 2.6 2.6 0 0 1-.762 1.672 2.63 2.63 0 0 1-1.68.759l-15.284.81a3.4 3.4 0 0 1-2.451-.862 3.37 3.37 0 0 1-.256-4.775 3.4 3.4 0 0 1 2.345-1.115zM76.603 48.81l18.088.81c.684 0 1.34.271 1.823.752a2.56 2.56 0 0 1 0 3.63 2.58 2.58 0 0 1-1.823.75l-18.088.811a3.4 3.4 0 0 1-2.444-.878 3.37 3.37 0 0 1-.224-4.775 3.4 3.4 0 0 1 2.352-1.1zm-28.85 16.701-36.175-.81a2.58 2.58 0 0 1-1.823-.752 2.56 2.56 0 0 1 0-3.628 2.58 2.58 0 0 1 1.822-.752l36.176-.81a3.4 3.4 0 0 1 2.398.989 3.37 3.37 0 0 1 0 4.774 3.4 3.4 0 0 1-2.398.99M43.05 75.19l-15.239-.676c-.683 0-1.339-.27-1.822-.751a2.56 2.56 0 0 1 0-3.629 2.58 2.58 0 0 1 1.822-.752l15.24-.81c.899-.048 1.78.262 2.45.862s1.074 1.439 1.122 2.334a3.37 3.37 0 0 1-.866 2.44 3.4 3.4 0 0 1-2.345 1.117zm3.482-19.627-18.087-.81a2.6 2.6 0 0 1-1.83-.847 2.56 2.56 0 0 1-.658-1.9 2.52 2.52 0 0 1 .757-1.709 2.54 2.54 0 0 1 1.73-.721l18.088-.81a3.4 3.4 0 0 1 2.438.893 3.37 3.37 0 0 1 .192 4.774 3.4 3.4 0 0 1-2.358 1.085z"/>
</svg>
