<svg xmlns="http://www.w3.org/2000/svg" height="1em" fill="currentColor" viewBox="0 0 124 124">
    <path d="M79.313 77.903c0 .89-.364 1.746-1.013 2.376a3.5 3.5 0 0 1-2.447.984H47.13a3.5 3.5 0 0 1-2.447-.984 3.31 3.31 0 0 1-.558-4.056l6.737-11.274c.308-.493.466-1.06.456-1.636V51.685a9.8 9.8 0 0 1 3.209-6.572 10.36 10.36 0 0 1 6.965-2.67c2.587 0 5.076.954 6.966 2.67a9.8 9.8 0 0 1 3.208 6.572v11.584c-.01.576.148 1.143.456 1.635l6.737 11.319c.299.512.456 1.09.455 1.68m7.967 0a10.8 10.8 0 0 0-1.548-5.527l-6.01-10.301v-10.39c0-4.69-1.917-9.189-5.332-12.505S66.343 34 61.514 34s-9.461 1.863-12.876 5.18-5.333 7.815-5.333 12.505v10.39L37.25 72.376a10.8 10.8 0 0 0-1.55 5.544 10.8 10.8 0 0 0 1.524 5.552 11.2 11.2 0 0 0 4.187 4.059c1.74.97 3.712 1.477 5.719 1.469h28.725c3.03 0 5.936-1.17 8.079-3.25 2.143-2.082 3.347-4.904 3.347-7.847"/>
    <path d="M39.936 77.196h-14.84c-.36 0-.715-.07-1.046-.202a2.7 2.7 0 0 1-.886-.576 2.7 2.7 0 0 1-.592-.86 2.6 2.6 0 0 1-.208-1.015c.007-.465.133-.92.364-1.327l5.326-8.842c.248-.4.374-.86.365-1.326V53.63a7.78 7.78 0 0 1 2.569-5.18 8.24 8.24 0 0 1 5.51-2.1c2.045 0 4.013.75 5.512 2.1a7.78 7.78 0 0 1 2.57 5.18 22.6 22.6 0 0 1 2.958-6.366c.337-.356.72-.668 1.138-.929-1.641-2.586-4.106-4.582-7.02-5.685a14.8 14.8 0 0 0-9.13-.43 14.4 14.4 0 0 0-7.554 5 13.7 13.7 0 0 0-2.927 8.41v8.312l-4.825 8.18A8.65 8.65 0 0 0 16 74.529a8.65 8.65 0 0 0 1.206 4.412 9 9 0 0 0 3.31 3.24 9.3 9.3 0 0 0 4.534 1.204h17.344a23.5 23.5 0 0 1-2.458-6.19m65.826-7.073-4.825-8.18V53.63a13.75 13.75 0 0 0-2.873-8.305 14.44 14.44 0 0 0-7.39-5.025 14.84 14.84 0 0 0-9.018.217 14.38 14.38 0 0 0-7.123 5.376 9.5 9.5 0 0 1 1.32 2.918l2.595 4.82a7.78 7.78 0 0 1 2.57-5.18 8.24 8.24 0 0 1 5.51-2.1c2.045 0 4.013.75 5.512 2.1a7.78 7.78 0 0 1 2.569 5.18v9.284c-.01.467.117.927.364 1.327l5.326 8.842c.253.398.379.86.365 1.326 0 .349-.071.694-.208 1.015a2.7 2.7 0 0 1-.593.861 2.7 2.7 0 0 1-.886.575 2.8 2.8 0 0 1-1.045.202H83.957a16 16 0 0 1-3.05 6.145h17.025a9.24 9.24 0 0 0 6.438-2.59 8.72 8.72 0 0 0 2.667-6.252 8.66 8.66 0 0 0-1.275-4.244"/>
</svg>
