<svg xmlns="http://www.w3.org/2000/svg" width="auto" height="1em" fill="currentColor" viewBox="0 0 105 105">
    <path d="M63.679 42.142 49.467 28.447h5.982l-14.17 13.695a3.693 3.693 0 0 1-5.26-.13c-1.358-1.469-1.358-3.758 0-5.184l13.448-14.516c1.612-1.771 4.37-1.728 5.982 0l13.448 14.473c3.224 3.499-1.824 8.64-5.26 5.357z"/>
    <path d="M49.297 78.949a1266 1266 0 0 1-.51-50.762c0-2.073 1.698-3.758 3.734-3.758s3.649 1.685 3.691 3.758c.17 16.935 0 33.827-.51 50.761-.126 4.105-6.235 4.105-6.363 0z"/>
</svg>
