<svg xmlns="http://www.w3.org/2000/svg" height="1em" fill="currentColor" viewBox="0 0 105 105">
    <path d="M75.748 19.32 56.91 25.305l2.911-5.3 4.966 19.108c.514 2.01-.685 4.061-2.697 4.574-1.926.513-3.895-.598-4.495-2.48l-5.993-18.809c-.728-2.266.6-4.702 2.911-5.3l19.136-4.96c4.623-1.197 6.635 5.729 2.097 7.182"/>
    <path d="M62.734 21.5C83.11 26.843 91.971 53.818 78.83 70.276c-2.612 4.275-17.68 16.63-20.72 8.678-.556-1.88.514-3.89 2.312-4.531 14.812-4.916 21.062-24.281 11.772-36.807-2.91-4.018-7.02-7.224-11.772-8.934-4.452-1.625-2.27-8.38 2.312-7.14zm-32.45 62.2 18.836-5.985-2.911 5.301-4.966-19.109c-.514-2.009.685-4.06 2.697-4.574 1.926-.513 3.896.599 4.495 2.48l5.993 18.81c.728 2.265-.6 4.701-2.91 5.3L32.38 90.882c-4.623 1.197-6.635-5.729-2.097-7.182"/>
    <path d="M43.298 81.52C22.92 76.176 14.059 49.2 27.2 32.743c2.612-4.275 17.68-16.63 20.72-8.678.557 1.881-.513 3.89-2.311 4.531-14.812 4.96-21.105 24.324-11.773 36.85 2.911 4.018 7.02 7.225 11.773 8.935 4.452 1.624 2.269 8.378-2.312 7.139"/>
</svg>
