<svg xmlns="http://www.w3.org/2000/svg" width="auto" height="1em" fill="currentColor" viewBox="0 0 468 200">
    <path d="M338.053 197.678c-41.951-10.091-70.103-49.492-66.052-92.434l28.671 6.81c-3.58 43.672 28.411 82.214 72.043 86.744a87 87 0 0 1-34.662-1.16m-87.733-83.124 48.722-53.112c6.21 23.321 12.37 46.562 18.54 69.713l33.542 8.28S329.653 58.342 316.762 9.88c-.91-3.49-1.81-6.77-2.63-9.87l-97.434 106.234 33.632 8.28m217.408-56.022v24.491l-39.491.31-.3 74.503h-30.321l-.4-74.503-39.492-.31v-24.49zm-315.102 0 .54 46.112 40.682-46.112h37.181l-42.582 47.672 45.512 51.642h-38.391l-42.192-49.362-.76 49.362h-30.071V58.482h30.071zm-100.734-1.55c15.02 0 39.452 4.64 48.222 9.15l1.61.82-.4 22.792c-.22 0-2.95-1.04-6.06-2.32-12.24-5.02-26.601-7.59-42.422-7.62-7.99 0-10.74.21-13.94 1.09-6.08 1.68-8.65 4.83-6.8 8.29 1.53 2.85 9.21 4.8 28.65 7.26 23.541 2.98 35.312 6.76 42.702 13.7 8.43 7.921 9.06 22.771 1.41 32.862-6.15 8.11-18.95 14.06-33.871 15.75-6.13.69-20.511.67-28.091-.05-11.77-1.11-32.312-5.32-40.372-8.26l-2.34-.85v-25.921c7.05 3.2 14.91 6.64 22.52 8.74 20.242 5.46 44.573 6.27 52.603 1.76 3.04-1.72 4.09-4.06 2.73-6.15-1.9-2.91-7.87-4.39-30.461-7.6-15.73-2.23-24.021-4.49-32.631-8.891C5.9 106.884.95 100.024.12 90.964c-1.36-14.941 8.55-26.082 27.671-31.092 5.39-1.41 17.91-2.94 24.091-2.94z"/>
</svg>
