<svg xmlns="http://www.w3.org/2000/svg" width="auto" height="1em" fill="currentColor" viewBox="0 0 105 105">
    <path d="M40.336 4.2a4.13 4.13 0 0 0-1.272-2.97A4.42 4.42 0 0 0 35.994 0a4.42 4.42 0 0 0-3.07 1.23 4.13 4.13 0 0 0-1.272 2.97v34.652l-1.302-.588a24.8 24.8 0 0 0-14.545 0c-4.8 1.213-9.084 3.859-12.243 7.56a13.8 13.8 0 0 0-3.163 5.93 13.55 13.55 0 0 0 .037 6.671 14 14 0 0 0 3.67 5.488 14.66 14.66 0 0 0 5.838 3.29 22.4 22.4 0 0 0 7.38 1.177 28.3 28.3 0 0 0 7.164-.966c4.782-1.257 9.053-3.895 12.244-7.56 2.292-2.651 3.552-5.995 3.56-9.451zM29.959 54.603a15.95 15.95 0 0 1-7.858 4.914 16.45 16.45 0 0 1-9.248 0 6.4 6.4 0 0 1-2.543-1.329 6.14 6.14 0 0 1-1.669-2.283c-.148-.9-.085-1.82.186-2.693a6 6 0 0 1 1.377-2.347 15.43 15.43 0 0 1 7.989-4.662 18.7 18.7 0 0 1 4.776-.672 13.8 13.8 0 0 1 4.342.714 6.2 6.2 0 0 1 2.467 1.302 6 6 0 0 1 1.614 2.226 6 6 0 0 1-.186 2.562 6.1 6.1 0 0 1-1.247 2.268"/>
</svg>
