<svg height="1em" width="auto" viewBox="0 0 105 105" fill="none" xmlns="http://www.w3.org/2000/svg">
<path d="M37.0294 4H12.2304C7.68488 4 4 7.68481 4 12.2303V52.9143C4 57.4597 7.68488 61.1445 12.2304 61.1445H37.0294C41.5749 61.1445 45.2598 57.4597 45.2598 52.9143V12.2303C45.2598 7.68481 41.5749 4 37.0294 4Z" stroke="currentColor" stroke-width="8" stroke-miterlimit="10"/>
<path d="M32.1058 15.1406H17.1545C15.4077 15.1406 13.9917 16.5566 13.9917 18.3033V25.2757C13.9917 27.0224 15.4077 28.4384 17.1545 28.4384H32.1058C33.8525 28.4384 35.2685 27.0224 35.2685 25.2757V18.3033C35.2685 16.5566 33.8525 15.1406 32.1058 15.1406Z" fill="currentColor"/>
</svg>
