<svg xmlns="http://www.w3.org/2000/svg" width="auto" height="1em" fill="none" viewBox="0 0 105 105">
    <path stroke="currentColor" stroke-miterlimit="10" stroke-width="8" d="M37.03 4h-24.8A8.23 8.23 0 0 0 4 12.23v40.684a8.23 8.23 0 0 0 8.23 8.23h24.8a8.23 8.23 0 0 0 8.23-8.23V12.23A8.23 8.23 0 0 0 37.03 4Z"/>
    <path fill="currentColor" d="M32.106 15.14H17.154a3.163 3.163 0 0 0-3.162 3.163v6.973a3.163 3.163 0 0 0 3.162 3.162h14.952a3.163 3.163 0 0 0 3.163-3.162v-6.973a3.163 3.163 0 0 0-3.163-3.162"/>
</svg>
