<svg xmlns="http://www.w3.org/2000/svg" xml:space="preserve" width="auto" height="1em" fill="currentColor" viewBox="0 0 512 512">
    <path d="M369.71 50.53c-9.05-4.75-20.26-1.26-25.08 7.79-4.75 9.05-1.26 20.26 7.79 25.01 68.56 35.91 111.23 106.41 111.23 183.87 0 114.57-93.12 207.69-207.62 207.69S48.41 381.77 48.41 267.28c0-77.47 42.59-147.96 111.23-183.87 9.05-4.75 12.61-15.95 7.79-25.01-4.75-9.05-15.95-12.54-25.08-7.79C61.47 92.98 11.24 176.01 11.24 267.35 11.31 402.18 121.06 512 256.03 512s244.72-109.82 244.72-244.72c0-91.34-50.23-174.38-131.04-216.75"/>
    <path d="M274.58 222.76V18.55C274.58 8.31 266.27 0 256.03 0s-18.55 8.31-18.55 18.55v204.21c0 10.24 8.31 18.55 18.55 18.55s18.55-8.31 18.55-18.55"/>
</svg>
