<svg height="1em" width="auto" viewBox="0 0 105 105" fill="none" xmlns="http://www.w3.org/2000/svg">
<path d="M31.0612 62.1874L20.0427 62.4083C16.8486 62.5491 13.7206 61.4676 11.2926 59.383C8.86469 57.2984 7.31846 54.3667 6.96734 51.182L4.02906 17.7242C3.91083 15.9956 4.15421 14.2613 4.74361 12.6324C5.33302 11.0035 6.25546 9.51595 7.45182 8.26504C8.64819 7.01413 10.0921 6.02746 11.6911 5.36823C13.29 4.709 15.0087 4.39176 16.7371 4.43683H33.6322C35.3528 4.39695 37.0627 4.71708 38.6528 5.37676C40.2429 6.03645 41.6783 7.0212 42.8672 8.26813C44.0562 9.51505 44.9726 10.9968 45.558 12.6186C46.1433 14.2405 46.3848 15.9668 46.2668 17.6874L43.4387 50.814C43.1477 53.9094 41.7206 56.7864 39.4339 58.8876C37.1472 60.9888 34.1636 62.1647 31.0612 62.1874Z" stroke="currentColor" stroke-width="8" stroke-miterlimit="10"/>
<path d="M14.8277 17.504C21.7327 17.2096 28.6376 17.2096 35.5426 17.504C35.9247 17.5623 36.2733 17.7558 36.5253 18.0496C36.7772 18.3433 36.9157 18.7178 36.9157 19.1052C36.9157 19.4925 36.7772 19.867 36.5253 20.1608C36.2733 20.4545 35.9247 20.6481 35.5426 20.7063C28.6376 21.0007 21.7327 21.0007 14.8277 20.7063C14.4215 20.6969 14.0346 20.531 13.7473 20.2431C13.46 19.9552 13.2945 19.5674 13.2851 19.1604C13.2751 18.737 13.4309 18.3265 13.7193 18.0169C14.0076 17.7073 14.4055 17.5232 14.8277 17.504Z" fill="currentColor" />
<path d="M14.8273 23.9806C21.7322 23.6862 28.6372 23.6862 35.5422 23.9806C35.9243 24.0388 36.2729 24.2324 36.5248 24.5261C36.7768 24.8199 36.9153 25.1944 36.9153 25.5817C36.9153 25.9691 36.7768 26.3436 36.5248 26.6373C36.2729 26.9311 35.9243 27.1246 35.5422 27.1828C28.6372 27.4773 21.7322 27.4773 14.8273 27.1828C14.6167 27.1782 14.4091 27.1313 14.2168 27.045C14.0246 26.9587 13.8515 26.8348 13.7077 26.6804C13.564 26.5261 13.4525 26.3445 13.3798 26.1463C13.3072 25.9481 13.2748 25.7374 13.2847 25.5265C13.3026 25.1223 13.4709 24.7395 13.7564 24.4534C14.0419 24.1672 14.4239 23.9986 14.8273 23.9806Z" fill="currentColor" />
<path d="M14.8273 30.4591C21.7322 30.1647 28.6372 30.1647 35.5422 30.4591C35.9243 30.5174 36.2729 30.7109 36.5248 31.0046C36.7768 31.2984 36.9153 31.6729 36.9153 32.0602C36.9153 32.4476 36.7768 32.8221 36.5248 33.1158C36.2729 33.4096 35.9243 33.6031 35.5422 33.6614C28.6372 33.9558 21.7322 33.9558 14.8273 33.6614C14.6167 33.6567 14.4091 33.6098 14.2168 33.5235C14.0246 33.4373 13.8515 33.3133 13.7077 33.1589C13.564 33.0046 13.4525 32.823 13.3798 32.6248C13.3072 32.4267 13.2748 32.2159 13.2847 32.005C13.3026 31.6008 13.4709 31.218 13.7564 30.9319C14.0419 30.6458 14.4239 30.4771 14.8273 30.4591Z" fill="currentColor" />
<path d="M25.1849 53.9784C27.0917 53.9784 28.6374 52.4293 28.6374 50.5185C28.6374 48.6076 27.0917 47.0586 25.1849 47.0586C23.2781 47.0586 21.7324 48.6076 21.7324 50.5185C21.7324 52.4293 23.2781 53.9784 25.1849 53.9784Z" />
<path d="M27.5721 61.0096C27.9027 63.9542 28.1598 66.9356 28.3434 69.8801C28.4002 72.2448 29.3599 74.4975 31.0246 76.1742C32.5868 77.9211 34.7409 79.024 37.0688 79.2689C39.3968 79.5137 41.7325 78.883 43.6225 77.4992C43.88 77.3164 44.1711 77.1865 44.479 77.1171C44.7869 77.0477 45.1054 77.0402 45.4162 77.0949C45.7271 77.1497 46.024 77.2657 46.2898 77.4362C46.5556 77.6067 46.785 77.8283 46.9648 78.0882C47.3004 78.5789 47.4447 79.176 47.3702 79.7662C47.2957 80.3565 47.0077 80.8988 46.5608 81.2904C45.1927 82.4802 43.6005 83.3832 41.8783 83.9458C40.1561 84.5085 38.3389 84.7194 36.5339 84.5662C32.9019 84.2515 29.5019 82.6458 26.9478 80.0389C24.4671 77.3648 23.0665 73.8623 23.0178 70.2114C22.8342 67.2668 22.7607 64.3222 22.6873 61.3408C22.687 60.6994 22.9361 60.083 23.3818 59.6226C23.8276 59.1622 24.4348 58.8939 25.0746 58.8748C25.6822 58.8519 26.2762 59.0586 26.7388 59.454C27.2014 59.8495 27.4989 60.4047 27.5721 61.0096Z" fill="currentColor" />
</svg>
