<svg xmlns="http://www.w3.org/2000/svg" width="auto" height="1em" fill="none" stroke="currentColor" viewBox="0 0 105 105">
    <path stroke-miterlimit="10" stroke-width="8" d="m31.061 62.187-11.018.221a12.58 12.58 0 0 1-8.75-3.025 12.63 12.63 0 0 1-4.326-8.201L4.03 17.724a12.47 12.47 0 0 1 3.423-9.459 12.4 12.4 0 0 1 9.285-3.828h16.895a12.35 12.35 0 0 1 9.235 3.831 12.4 12.4 0 0 1 3.4 9.42L43.44 50.814a12.56 12.56 0 0 1-4.005 8.074 12.5 12.5 0 0 1-8.373 3.3Z"/>
    <path fill="currentColor" d="M14.828 17.504q10.358-.441 20.715 0a1.616 1.616 0 0 1 1.373 1.601 1.62 1.62 0 0 1-1.373 1.601q-10.358.443-20.715 0a1.58 1.58 0 0 1-1.543-1.546 1.62 1.62 0 0 1 1.543-1.656m-.001 6.476q10.358-.441 20.715 0a1.615 1.615 0 0 1 1.373 1.602 1.62 1.62 0 0 1-1.373 1.6q-10.358.443-20.715 0a1.575 1.575 0 0 1-1.447-1.036 1.62 1.62 0 0 1 1.447-2.166m0 6.48q10.358-.442 20.715 0a1.616 1.616 0 0 1 1.373 1.6 1.62 1.62 0 0 1-1.373 1.601q-10.358.443-20.715 0a1.58 1.58 0 0 1-1.447-1.036 1.62 1.62 0 0 1 1.447-2.166"/>
    <path d="M25.185 53.978a3.456 3.456 0 0 0 3.452-3.46c0-1.91-1.545-3.46-3.452-3.46a3.456 3.456 0 0 0-3.453 3.46 3.456 3.456 0 0 0 3.453 3.46"/>
    <path fill="currentColor" d="M27.572 61.01c.33 2.944.588 5.926.771 8.87a9.25 9.25 0 0 0 2.682 6.294A9.425 9.425 0 0 0 43.623 77.5a2.386 2.386 0 0 1 3.342.59 2.433 2.433 0 0 1-.404 3.201 13.55 13.55 0 0 1-10.027 3.276 15.27 15.27 0 0 1-9.586-4.527 14.74 14.74 0 0 1-3.93-9.828c-.184-2.944-.257-5.889-.33-8.87a2.46 2.46 0 0 1 2.387-2.466 2.42 2.42 0 0 1 2.497 2.135"/>
</svg>
