<svg height="1em" width="auto" viewBox="0 0 105 105" fill="currentColor" xmlns="http://www.w3.org/2000/svg">
<path d="M0.0167316 43.8772C-0.140927 38.21 0.81689 32.5672 2.83567 27.2697C4.92281 21.9411 8.05712 17.0854 12.0532 12.9899C16.0892 8.87671 20.9042 5.60946 26.2168 3.3791C31.5293 1.14874 37.233 0 42.9944 0C48.7558 0 54.4594 1.14874 59.772 3.3791C65.0845 5.60946 69.8995 8.87671 73.9356 12.9899C77.9299 17.0955 81.0771 21.9477 83.1978 27.2697C85.2024 32.5699 86.1451 38.2129 85.972 43.8772C85.972 44.7676 85.6184 45.6216 84.9891 46.2512C84.3597 46.8808 83.5061 47.2345 82.6161 47.2345C81.7261 47.2345 80.8725 46.8808 80.2431 46.2512C79.6138 45.6216 79.2602 44.7676 79.2602 43.8772C78.8462 34.4469 74.8254 25.5363 68.0292 18.9883C61.2839 12.5311 52.308 8.92691 42.972 8.92691C33.636 8.92691 24.6601 12.5311 17.9148 18.9883C11.1236 25.5355 7.117 34.45 6.72849 43.8772C6.71121 44.3182 6.60719 44.7515 6.42237 45.1522C6.23755 45.553 5.97557 45.9133 5.65141 46.2127C5.32725 46.512 4.94728 46.7445 4.53322 46.8968C4.11917 47.0491 3.67916 47.1182 3.23838 47.1002C2.40125 47.0474 1.61214 46.6909 1.01902 46.0975C0.425909 45.5042 0.0695348 44.7147 0.0167316 43.8772Z"/>
<path d="M16.6171 43.9672C16.4693 40.5115 17.0728 37.0649 18.3861 33.8653C19.6994 30.6657 21.6911 27.7894 24.2237 25.4348C29.2855 20.5993 36.0178 17.9052 43.0166 17.9144C50.0468 17.7765 56.859 20.3583 62.0333 25.1215C64.6404 27.4748 66.6647 30.4026 67.946 33.6734C69.2274 36.9442 69.7307 40.4683 69.4162 43.9672C69.3044 44.8316 68.8565 45.6171 68.1697 46.1534C67.4829 46.6897 66.6125 46.9335 65.7471 46.8321C65.0357 46.7488 64.3724 46.4307 63.8619 45.9281C63.3513 45.4255 63.0228 44.767 62.9282 44.0567C62.2242 39.2731 59.8457 34.8949 56.2164 31.7018C52.5444 28.4884 47.8488 26.6877 42.9706 26.6221C38.0925 26.5564 33.3502 28.2302 29.5931 31.3437C27.7243 32.9081 26.1874 34.831 25.0731 36.9991C23.9588 39.1671 23.2897 41.5364 23.1051 43.9672C23.0116 44.7623 22.6296 45.4953 22.0316 46.0273C21.4337 46.5593 20.6613 46.8532 19.8611 46.8532C19.0609 46.8532 18.2885 46.5593 17.6905 46.0273C17.0925 45.4953 16.7106 44.7623 16.6171 43.9672Z"/>
<path d="M43.0168 56.0082C47.7615 56.0082 51.6079 52.06 51.6079 47.1896C51.6079 42.3193 47.7615 38.3711 43.0168 38.3711C38.2721 38.3711 34.4258 42.3193 34.4258 47.1896C34.4258 52.06 38.2721 56.0082 43.0168 56.0082Z" />
</svg>
