<svg xmlns="http://www.w3.org/2000/svg" width="auto" height="1em" fill="currentColor" viewBox="0 0 105 105">
    <path d="M58.987 39.503a27.3 27.3 0 0 0 2.501-11.406 27.3 27.3 0 0 0-2.501-11.407 3.24 3.24 0 0 1 .844-3.73 3.31 3.31 0 0 1 3.835-.37 19.8 19.8 0 0 1 5.582 6.891 19.62 19.62 0 0 1 0 17.23 19.8 19.8 0 0 1-5.582 6.89 3.256 3.256 0 0 1-3.917-.277 3.19 3.19 0 0 1-.763-3.82"/>
    <path d="M69.689 50.07a38.84 38.84 0 0 0 6.992-22.22c0-7.94-2.439-15.69-6.992-22.22a3.16 3.16 0 0 1 .473-4.47 3.22 3.22 0 0 1 4.504.47 34.6 34.6 0 0 1 9.066 11.83 34.3 34.3 0 0 1 3.22 14.514 34.3 34.3 0 0 1-3.22 14.513 34.6 34.6 0 0 1-9.066 11.83 3.15 3.15 0 0 1-4.078-.172 3.09 3.09 0 0 1-.451-4.025zM39.474 8.641a3.8 3.8 0 0 1 2.675 1.1 3.74 3.74 0 0 1 1.108 2.653v31.159c0 .995-.399 1.95-1.108 2.653a3.8 3.8 0 0 1-2.675 1.1c-.663 0-1.315-.17-1.892-.494L24.89 39.504a3.46 3.46 0 0 0-1.842-.494h-3.136a11.2 11.2 0 0 1-7.399-3.48 11 11 0 0 1-3.007-7.557c0-2.805 1.075-5.506 3.007-7.555a11.2 11.2 0 0 1 7.4-3.48h3.185a3.45 3.45 0 0 0 1.792-.495l12.693-7.308a3.86 3.86 0 0 1 1.892-.494m0-8.641a12.5 12.5 0 0 0-6.222 1.679l-11.6 6.617h-1.742a20 20 0 0 0-14.08 5.785A19.67 19.67 0 0 0 0 28.048a19.67 19.67 0 0 0 5.832 13.966 20 20 0 0 0 14.08 5.785h1.84l11.5 6.518a12.52 12.52 0 0 0 12.493.03 12.4 12.4 0 0 0 4.569-4.541 12.27 12.27 0 0 0 1.654-6.204V12.394c0-3.287-1.317-6.44-3.66-8.764A12.55 12.55 0 0 0 39.474 0"/>
</svg>
