<svg xmlns="http://www.w3.org/2000/svg" xml:space="preserve" viewBox="0 0 24 24" fill="currentColor">
    <path d="M22 11.25H10.674a3.75 3.75 0 0 0-7.348 0H2a.75.75 0 0 0 0 1.5h1.326a3.75 3.75 0 0 0 7.348 0H22a.75.75 0 0 0 0-1.5m-15 3A2.25 2.25 0 1 1 9.25 12 2.253 2.253 0 0 1 7 14.25m15-10h-2.326a3.75 3.75 0 0 0-7.348 0H2a.75.75 0 0 0 0 1.5h10.326a3.75 3.75 0 0 0 7.348 0H22a.75.75 0 0 0 0-1.5m-6 3A2.25 2.25 0 1 1 18.25 5 2.253 2.253 0 0 1 16 7.25m6 11h-2.326a3.75 3.75 0 0 0-7.348 0H2a.75.75 0 0 0 0 1.5h10.326a3.75 3.75 0 0 0 7.348 0H22a.75.75 0 0 0 0-1.5m-6 3A2.25 2.25 0 1 1 18.25 19 2.253 2.253 0 0 1 16 21.25"/>
</svg>