<svg xmlns="http://www.w3.org/2000/svg" xml:space="preserve" viewBox="0 0 24 24" fill="currentColor">
    <path d="M21 20.25H11c-.41 0-.75-.34-.75-.75s.34-.75.75-.75h10c.41 0 .75.34.75.75s-.34.75-.75.75m0-7H11c-.41 0-.75-.34-.75-.75s.34-.75.75-.75h10c.41 0 .75.34.75.75s-.34.75-.75.75m0-7H11c-.41 0-.75-.34-.75-.75s.34-.75.75-.75h10c.41 0 .75.34.75.75s-.34.75-.75.75m-17 1c-.19 0-.38-.07-.53-.22l-1-1c-.29-.29-.29-.77 0-1.06s.77-.29 1.06 0l.47.47 2.47-2.47c.29-.29.77-.29 1.06 0s.29.77 0 1.06l-3 3c-.15.15-.34.22-.53.22m0 7c-.19 0-.38-.07-.53-.22l-1-1c-.29-.29-.29-.77 0-1.06s.77-.29 1.06 0l.47.47 2.47-2.47c.29-.29.77-.29 1.06 0s.29.77 0 1.06l-3 3c-.15.15-.34.22-.53.22m0 7c-.19 0-.38-.07-.53-.22l-1-1c-.29-.29-.29-.77 0-1.06s.77-.29 1.06 0l.47.47 2.47-2.47c.29-.29.77-.29 1.06 0s.29.77 0 1.06l-3 3c-.15.15-.34.22-.53.22"/>
</svg>