<svg xmlns="http://www.w3.org/2000/svg" width="auto" height="1em" fill="non" stroke="currentColor" viewBox="0 0 105 105">
    <path stroke-miterlimit="10" stroke-width="7" d="M64.022 12.361h18.49c1.629 0 3.19.643 4.342 1.788a6.1 6.1 0 0 1 1.798 4.318v30.166a6.08 6.08 0 0 1-1.798 4.317 6.14 6.14 0 0 1-4.341 1.788H64.022"/>
    <path fill="currentColor" d="M78.865 20.622H67.67a2.34 2.34 0 0 0-2.348 2.334v5.208a2.34 2.34 0 0 0 2.348 2.334h11.195a2.34 2.34 0 0 0 2.348-2.334v-5.208a2.34 2.34 0 0 0-2.348-2.334"/>
    <path stroke-miterlimit="10" stroke-width="7" d="M28.63 54.738H10.14a6.17 6.17 0 0 1-4.342-1.788A6.1 6.1 0 0 1 4 48.633V18.466a6.1 6.1 0 0 1 1.798-4.317 6.16 6.16 0 0 1 4.341-1.788H28.63"/>
    <path fill="currentColor" d="M24.982 20.622H13.787a2.34 2.34 0 0 0-2.347 2.334v5.208a2.34 2.34 0 0 0 2.347 2.334h11.195a2.34 2.34 0 0 0 2.348-2.334v-5.208a2.34 2.34 0 0 0-2.348-2.334"/>
    <path stroke-miterlimit="10" stroke-width="9" d="M58.605 5H34.047c-4.667 0-8.45 3.762-8.45 8.404v40.293c0 4.642 3.783 8.404 8.45 8.404h24.558c4.667 0 8.45-3.762 8.45-8.404V13.404c0-4.642-3.783-8.404-8.45-8.404Z"/>
    <path fill="currentColor" d="M53.838 16.133H38.814a3.17 3.17 0 0 0-3.178 3.16v6.967a3.17 3.17 0 0 0 3.178 3.16h15.024a3.17 3.17 0 0 0 3.178-3.16v-6.967a3.17 3.17 0 0 0-3.178-3.16"/>
</svg>
