<svg xmlns="http://www.w3.org/2000/svg" xml:space="preserve" width="auto" height="1em" fill="currentColor" fill-rule="evenodd" viewBox="0 0 48 48">
    <path d="M16.898 23.098a2.4 2.4 0 0 0-2.253-2.082h-.02a15 15 0 0 0-1.218.006H13.4a2.394 2.394 0 0 0-2.245 2.064c-.04.263-.078.54-.111.794a.4.4 0 0 1-.273.326q-.706.228-1.376.565l-.006.003a.39.39 0 0 1-.42-.038l-.629-.475a2.4 2.4 0 0 0-3.08.134q-.447.416-.856.865a2.39 2.39 0 0 0-.132 3.052c.157.215.327.437.482.64.094.122.11.287.038.425a10 10 0 0 0-.574 1.371l-.002.007a.4.4 0 0 1-.323.27l-.781.108a2.4 2.4 0 0 0-2.082 2.253v.02q-.022.61.006 1.218v.006A2.394 2.394 0 0 0 3.1 36.875c.263.04.54.078.794.111.152.02.28.127.326.273q.228.706.565 1.376l.003.006a.39.39 0 0 1-.038.42l-.475.629a2.4 2.4 0 0 0 .134 3.08q.416.447.865.856a2.39 2.39 0 0 0 3.052.132c.215-.157.437-.327.64-.482a.4.4 0 0 1 .425-.038c.438.226.899.417 1.371.574a.4.4 0 0 1 .276.325l.11.781A2.4 2.4 0 0 0 13.4 47h.02q.61.023 1.218-.006h.006a2.394 2.394 0 0 0 2.245-2.064c.04-.263.078-.54.111-.794a.4.4 0 0 1 .273-.326c.47-.151.93-.342 1.376-.565l.006-.003a.39.39 0 0 1 .42.038l.629.475a2.4 2.4 0 0 0 3.08-.134q.447-.416.856-.865a2.39 2.39 0 0 0 .132-3.052c-.157-.215-.327-.437-.482-.64a.4.4 0 0 1-.038-.425c.226-.438.417-.899.574-1.371l.002-.007a.4.4 0 0 1 .323-.27l.781-.108a2.4 2.4 0 0 0 2.082-2.253v-.02q.023-.61-.006-1.218v-.006a2.394 2.394 0 0 0-2.064-2.245 41 41 0 0 0-.794-.111.4.4 0 0 1-.326-.273 10 10 0 0 0-.565-1.376l-.003-.006a.39.39 0 0 1 .038-.42l.475-.629a2.4 2.4 0 0 0-.134-3.08 16 16 0 0 0-.865-.856 2.39 2.39 0 0 0-3.052-.132c-.215.157-.437.327-.64.482a.4.4 0 0 1-.425.038 10 10 0 0 0-1.371-.574l-.007-.002a.4.4 0 0 1-.27-.323zm-1.984.262.112.795a2.39 2.39 0 0 0 1.633 1.95c.368.122.732.273 1.083.454h.003a2.4 2.4 0 0 0 2.55-.23l.63-.476a.395.395 0 0 1 .503.02q.382.348.736.727a.4.4 0 0 1 .019.51l-.484.64a2.39 2.39 0 0 0-.223 2.533 8 8 0 0 1 .446 1.09 2.4 2.4 0 0 0 1.965 1.64l.783.11c.188.024.33.178.342.368q.023.517.005 1.035a.4.4 0 0 1-.346.373l-.795.112a2.39 2.39 0 0 0-1.95 1.633 7.6 7.6 0 0 1-.454 1.083v.003a2.4 2.4 0 0 0 .23 2.55l.476.63a.395.395 0 0 1-.02.503q-.349.382-.727.736a.4.4 0 0 1-.51.019l-.64-.484a2.39 2.39 0 0 0-2.533-.223 8 8 0 0 1-1.087.445h-.003a2.4 2.4 0 0 0-1.64 1.966l-.11.783a.394.394 0 0 1-.368.342q-.518.023-1.035.005a.4.4 0 0 1-.373-.346l-.112-.795a2.39 2.39 0 0 0-1.633-1.95 7.6 7.6 0 0 1-1.083-.454H10.3a2.4 2.4 0 0 0-2.55.23l-.63.476a.395.395 0 0 1-.503-.02 13 13 0 0 1-.736-.727.4.4 0 0 1-.019-.51l.484-.64a2.39 2.39 0 0 0 .223-2.533 8 8 0 0 1-.445-1.087v-.003a2.4 2.4 0 0 0-1.966-1.64l-.783-.11a.394.394 0 0 1-.342-.368 13 13 0 0 1-.005-1.035.4.4 0 0 1 .346-.373l.795-.112a2.39 2.39 0 0 0 1.95-1.633c.122-.368.273-.732.454-1.083v-.003a2.4 2.4 0 0 0-.23-2.55l-.476-.63a.395.395 0 0 1 .02-.503q.348-.382.727-.736a.4.4 0 0 1 .51-.019l.64.484a2.39 2.39 0 0 0 2.533.223 8 8 0 0 1 1.087-.445h.003a2.4 2.4 0 0 0 1.64-1.966l.11-.783a.394.394 0 0 1 .368-.342q.517-.023 1.035-.005a.4.4 0 0 1 .373.346z"/>
    <path d="M28.964 38.924a2.995 2.995 0 0 0 2.313-2.537c.043-.3.083-.611.119-.904.05-.397.332-.725.715-.836.399-.106.782-.23 1.16-.37l.004-.001a.99.99 0 0 1 1.073.251l.621.652a3 3 0 0 0 3.899.414l.599-.444a2.994 2.994 0 0 0 .817-3.817 45 45 0 0 0-.436-.802 1 1 0 0 1 .088-1.097c.26-.319.497-.646.72-.981l.003-.003a.99.99 0 0 1 1.015-.428l.886.163a3 3 0 0 0 3.397-1.957l.225-.711a2.995 2.995 0 0 0-1.583-3.568c-.273-.135-.557-.268-.824-.394a1 1 0 0 1-.574-.938c.022-.411.022-.814.006-1.217v-.005a.99.99 0 0 1 .57-.942l.813-.389a3 3 0 0 0 1.598-3.58l-.237-.708a2.994 2.994 0 0 0-3.378-1.956c-.299.052-.607.111-.897.167a1 1 0 0 1-1.016-.422 13 13 0 0 0-.71-.989l-.003-.004a.99.99 0 0 1-.093-1.097l.429-.792a3 3 0 0 0-.812-3.836l-.607-.434a2.995 2.995 0 0 0-3.882.404c-.212.217-.427.446-.629.662a1 1 0 0 1-1.07.256 13 13 0 0 0-1.155-.383l-.005-.001a.99.99 0 0 1-.72-.834l-.119-.892A3 3 0 0 0 28.373.998l-.746.006a2.994 2.994 0 0 0-2.904 2.608c-.043.301-.082.612-.119.905-.05.397-.332.725-.715.836-.399.106-.782.23-1.16.37l-.004.001a.99.99 0 0 1-1.073-.251l-.621-.652a3 3 0 0 0-3.899-.414l-.599.444a2.994 2.994 0 0 0-.817 3.817c.142.269.293.544.436.802a1 1 0 0 1-.088 1.097c-.26.319-.497.646-.72.981l-.003.003a.99.99 0 0 1-1.015.428l-.886-.163a3 3 0 0 0-3.397 1.957l-.225.711a2.995 2.995 0 0 0 1.583 3.568c.273.135.557.268.824.394a1 1 0 0 1 .319.237 1 1 0 0 0 1.49-1.334 3 3 0 0 0-.958-.714l-.813-.388a.994.994 0 0 1-.53-1.186q.099-.319.201-.638a1 1 0 0 1 1.129-.643h.001c.301.058.613.118.908.167a2.99 2.99 0 0 0 3.037-1.292q.282-.425.606-.825l.008-.009a3 3 0 0 0 .281-3.315l-.43-.792a.994.994 0 0 1 .269-1.271q.268-.2.538-.398a1 1 0 0 1 1.291.144c.21.224.427.455.636.669a2.99 2.99 0 0 0 3.218.739q.476-.177.975-.311l.011-.003a3 3 0 0 0 2.176-2.516l.118-.894a.994.994 0 0 1 .964-.87q.334-.005.669-.006c.491.016.899.387.961.875v.001c.038.304.078.619.121.915a2.99 2.99 0 0 0 2.169 2.489q.49.137.971.322l.011.004a3 3 0 0 0 3.24-.757l.62-.653a.994.994 0 0 1 1.292-.137q.273.192.544.388a1 1 0 0 1 .263 1.272v.001c-.148.269-.301.547-.44.812a2.99 2.99 0 0 0 .291 3.288q.317.399.597.831l.007.01a3 3 0 0 0 3.066 1.292l.885-.164a.995.995 0 0 1 1.126.648q.108.317.212.635a1 1 0 0 1-.535 1.183c-.278.131-.566.266-.833.399a2.99 2.99 0 0 0-1.698 2.831c.013.338.014.681-.005 1.024l-.001.011a3 3 0 0 0 1.721 2.848l.813.388a.994.994 0 0 1 .53 1.186q-.099.319-.201.638a1 1 0 0 1-1.129.643h-.001a37 37 0 0 0-.908-.167 2.99 2.99 0 0 0-3.037 1.292q-.282.425-.606.825l-.008.009a3 3 0 0 0-.281 3.315l.43.792a.994.994 0 0 1-.269 1.271q-.267.2-.538.398a1 1 0 0 1-1.291-.144c-.21-.224-.427-.455-.636-.669a2.99 2.99 0 0 0-3.218-.739q-.476.177-.975.311l-.011.003a3 3 0 0 0-2.176 2.516l-.118.894a.99.99 0 0 1-.768.846 1 1 0 0 0 .438 1.951M14 29c-2.76 0-5 2.24-5 5s2.24 5 5 5 5-2.24 5-5-2.24-5-5-5m0 2a3.001 3.001 0 0 1 0 6 3.001 3.001 0 0 1 0-6"/>
    <path d="M21.042 20.768A7.004 7.004 0 0 1 28 13c3.863 0 7 3.137 7 7a7.004 7.004 0 0 1-7.763 6.959 1 1 0 0 0-.215 1.988Q27.504 29 28 29c4.967 0 9-4.033 9-9s-4.033-9-9-9-9 4.033-9 9q0 .5.053.985a1 1 0 0 0 1.989-.217"/>
</svg>
