<svg xmlns="http://www.w3.org/2000/svg" width="auto" height="1em" fill="currentColor" viewBox="0 0 105 105">
    <path d="M27.388 47.461a8.75 8.75 0 0 1-1.997-4.046H9.09a2.82 2.82 0 0 1-1.989-.817 2.78 2.78 0 0 1-.824-1.974c0-.488.142-.966.408-1.376l5.543-9.427c.258-.414.398-.89.407-1.376v-9.63c0-2.145.86-4.204 2.388-5.721a8.18 8.18 0 0 1 5.764-2.37c2.162 0 4.235.852 5.763 2.37a8.06 8.06 0 0 1 2.388 5.722v9.63a2.9 2.9 0 0 0 0 .849c0-.283.367-.567.57-.81a5.9 5.9 0 0 1 1.63-1.537 8.15 8.15 0 0 1 4.076-2.913v-5.22a14.5 14.5 0 0 0-.888-5.82 14.6 14.6 0 0 0-3.13-5 14.7 14.7 0 0 0-4.865-3.367 14.8 14.8 0 0 0-11.618 0 14.7 14.7 0 0 0-4.865 3.367 14.6 14.6 0 0 0-3.13 5 14.5 14.5 0 0 0-.889 5.82v8.7L1.223 36.01A9.5 9.5 0 0 0 0 40.583a9.15 9.15 0 0 0 2.71 6.494 9.3 9.3 0 0 0 6.542 2.69h20.867a8.1 8.1 0 0 1-2.73-2.306"/>
    <path d="M61.135 51.02a9.8 9.8 0 0 1-2.12-.404 16.4 16.4 0 0 1-3.056-1.456 9.57 9.57 0 0 1-3.546-4.046H32.035c-.822 0-1.61-.324-2.19-.901a3.06 3.06 0 0 1-.908-2.174 3 3 0 0 1 .408-1.497l6.113-10.399c.271-.467.412-.998.408-1.537v-10.64a9 9 0 0 1 .51-3.65 9.05 9.05 0 0 1 1.931-3.147 9.1 9.1 0 0 1 3.034-2.123 9.2 9.2 0 0 1 7.268 0 9.1 9.1 0 0 1 3.033 2.123 9.05 9.05 0 0 1 1.932 3.146 9 9 0 0 1 .51 3.65v10.641c-.004.54.136 1.07.407 1.537l1.55 2.63v-.242l.407-.971c.292-.88.66-1.733 1.1-2.55a9.2 9.2 0 0 1 3.18-3.196l.407-.121v-7.728c0-4.292-1.718-8.409-4.775-11.444a16.36 16.36 0 0 0-11.528-4.74c-4.324 0-8.47 1.705-11.528 4.74a16.12 16.12 0 0 0-4.774 11.444v9.549l-5.258 9.427a10.06 10.06 0 0 0-.024 10.154 10.15 10.15 0 0 0 3.748 3.714 10.25 10.25 0 0 0 5.12 1.345h25.717a10.3 10.3 0 0 0 4.076-.931z"/>
    <path d="M88.93 43.697a3.4 3.4 0 0 1-.988 2.389 3.44 3.44 0 0 1-2.394 1.01H57.059a3.44 3.44 0 0 1-2.42-.996 3.4 3.4 0 0 1-1.004-2.403 3.5 3.5 0 0 1 .449-1.66l6.684-11.45a3.54 3.54 0 0 0 .367-1.82V16.993c0-2.682 1.073-5.255 2.984-7.152a10.23 10.23 0 0 1 7.205-2.963c2.702 0 5.294 1.066 7.204 2.963a10.08 10.08 0 0 1 2.985 7.152v11.774c-.001.6.168 1.19.489 1.7l6.643 11.45c.3.501.454 1.075.448 1.658m7.907 0a10.9 10.9 0 0 0-1.549-5.583l-6.195-10.48V16.994c-.22-4.58-2.207-8.9-5.55-12.064A18.04 18.04 0 0 0 71.303 0c-4.618 0-9.06 1.765-12.403 4.93a17.8 17.8 0 0 0-5.55 12.063v10.52l-6.032 10.479a11.14 11.14 0 0 0 .006 11.177 11.25 11.25 0 0 0 4.112 4.097 11.35 11.35 0 0 0 5.623 1.517h28.53a11.37 11.37 0 0 0 7.901-3.266 11.2 11.2 0 0 0 3.347-7.82z"/>
</svg>
