<svg xmlns="http://www.w3.org/2000/svg" xml:space="preserve" viewBox="0 0 24 24" fill="currentColor">
    <g fill-rule="evenodd" clip-rule="evenodd">
        <path d="M10.462 1.25h.076c.67 0 1.229 0 1.681.046.474.048.913.153 1.309.417.3.201.558.459.759.76.264.395.369.835.417 1.308.046.452.046 1.011.046 1.68V6h-1.5v-.5c0-.718 0-1.2-.038-1.567-.036-.355-.1-.519-.173-.627a1.3 1.3 0 0 0-.344-.345c-.109-.073-.273-.137-.628-.173-.367-.037-.85-.038-1.567-.038-.718 0-1.2 0-1.567.038-.355.036-.519.1-.627.173a1.3 1.3 0 0 0-.345.345c-.073.108-.137.272-.173.627-.037.367-.038.85-.038 1.567V6h-1.5v-.538c0-.67 0-1.229.046-1.681.048-.473.153-.913.418-1.309.2-.3.458-.558.758-.759.396-.264.836-.369 1.31-.417.451-.046 1.01-.046 1.68-.046"/>
        <path d="M3.757 7.171C3.655 5.85 4.718 4.75 6.03 4.75h8.94c1.312 0 2.376 1.1 2.273 2.421l-.107 1.387a.75.75 0 0 1-1.495-.116l.107-1.386a.763.763 0 0 0-.778-.806H6.03c-.47 0-.81.386-.778.806l.184 2.378a9.1 9.1 0 0 0 1.553 4.422l.6.885a2.33 2.33 0 0 0 1.927 1.009H11a.75.75 0 0 1 0 1.5H9.516a3.83 3.83 0 0 1-3.168-1.667l-.6-.884a10.6 10.6 0 0 1-1.807-5.15z"/>
        <path d="M10.5 16.25a.75.75 0 0 1 .75.75v5a.75.75 0 0 1-1.5 0v-5a.75.75 0 0 1 .75-.75M8.75 8.5a.75.75 0 0 1 .75-.75h2a.75.75 0 0 1 0 1.5h-2a.75.75 0 0 1-.75-.75m4.22 1.97a.75.75 0 0 1 1.06 0l2.47 2.47 2.47-2.47a.75.75 0 1 1 1.06 1.06L17.56 14l2.47 2.47a.75.75 0 1 1-1.06 1.06l-2.47-2.47-2.47 2.47a.75.75 0 1 1-1.06-1.06L15.44 14l-2.47-2.47a.75.75 0 0 1 0-1.06"/>
    </g>
</svg>