<svg xmlns="http://www.w3.org/2000/svg" xml:space="preserve" width="auto" height="1em" fill="currentColor" viewBox="0 0 24 24">
    <g fill-rule="evenodd" clip-rule="evenodd">
        <path d="M11.962 1.25h.076c.67 0 1.229 0 1.681.046.474.048.913.153 1.309.417.3.201.558.459.759.76.264.395.369.835.417 1.308.046.452.046 1.011.046 1.68V6h-1.5v-.5c0-.718 0-1.2-.038-1.567-.036-.355-.1-.519-.173-.627a1.3 1.3 0 0 0-.344-.345c-.109-.073-.273-.137-.628-.173-.367-.037-.85-.038-1.567-.038s-1.2 0-1.567.038c-.355.036-.519.1-.627.173a1.3 1.3 0 0 0-.345.345c-.073.108-.137.272-.173.627-.037.367-.038.85-.038 1.567V6h-1.5v-.538c0-.67 0-1.229.046-1.681.048-.473.153-.913.418-1.309.2-.3.458-.558.758-.759.396-.264.836-.369 1.31-.417.451-.046 1.01-.046 1.68-.046"/>
        <path d="M5.257 7.171C5.155 5.85 6.218 4.75 7.53 4.75h8.94c1.312 0 2.376 1.1 2.273 2.421L18.56 9.55a10.6 10.6 0 0 1-1.807 5.149l-.601.884a3.83 3.83 0 0 1-3.168 1.667h-1.968a3.83 3.83 0 0 1-3.168-1.667l-.6-.884a10.6 10.6 0 0 1-1.807-5.15zM7.53 6.25c-.47 0-.81.386-.778.806l.184 2.378a9.1 9.1 0 0 0 1.553 4.422l.6.885a2.33 2.33 0 0 0 1.927 1.009h1.968c.78 0 1.501-.382 1.927-1.009l.6-.885a9.1 9.1 0 0 0 1.553-4.422l.184-2.378a.763.763 0 0 0-.778-.806z"/>
        <path d="M12 16.25a.75.75 0 0 1 .75.75v5a.75.75 0 0 1-1.5 0v-5a.75.75 0 0 1 .75-.75M10.25 8.5a.75.75 0 0 1 .75-.75h2a.75.75 0 0 1 0 1.5h-2a.75.75 0 0 1-.75-.75"/>
    </g>
</svg>
