<svg xmlns="http://www.w3.org/2000/svg" width="auto" height="1em" fill="currentColor" viewBox="0 0 105 105">
    <path d="M6.782 1.122a40.05 40.05 0 0 0 13.253 11.039 36.2 36.2 0 0 0 16.645 3.801 36.2 36.2 0 0 0 16.646-3.801A40.2 40.2 0 0 0 66.624 1.122a3.944 3.944 0 0 1 5.059-.38 4.03 4.03 0 0 1 1.54 2.24 4.08 4.08 0 0 1-.221 2.72A43.2 43.2 0 0 1 57.26 19.855a45.4 45.4 0 0 1-20.58 5.267 45.05 45.05 0 0 1-20.536-5.13A43.3 43.3 0 0 1 .359 5.84a4.08 4.08 0 0 1-.222-2.72A4.03 4.03 0 0 1 1.677.88a3.944 3.944 0 0 1 5.06.38z"/>
    <path d="M32.655 32.634c-1.267-4.58-1.629-13.74 5.201-12.504 4.523 1.787 3.71 8.336 3.076 12.32a4.57 4.57 0 0 1-1.668 1.99 4.48 4.48 0 0 1-4.941 0 4.57 4.57 0 0 1-1.669-1.99zm27.908-5.314c-3.438-2.93-9.047-10.625-2.533-13.327 4.975-1.1 7.69 4.855 9.498 8.473a4.63 4.63 0 0 1-.35 2.513 4.57 4.57 0 0 1-1.62 1.938 4.48 4.48 0 0 1-4.815.13zm-47.72-.274c3.438-2.931 9.046-10.626 2.533-13.328-4.885-.916-7.69 5.038-9.363 8.748A4.63 4.63 0 0 0 6.356 25a4.56 4.56 0 0 0 1.634 1.953 4.48 4.48 0 0 0 4.853.091"/>
</svg>
