<svg xmlns="http://www.w3.org/2000/svg" xml:space="preserve" width="auto" height="1em" fill="currentColor" viewBox="0 0 64 64">
    <path d="M50 58H14a2 2 0 0 1 0-4h36a2 2 0 0 1 0 4m-4-10a2 2 0 0 1-2-1.997c-.008-5.479-5.548-8.637-10.741-11.166-.69-.336-1.423-.678-2.181-1.03C24.72 30.844 16.013 26.786 16 18.003A2 2 0 0 1 17.997 16H18a2 2 0 0 1 2 1.997c.009 6.238 6.788 9.396 12.768 12.184.779.363 1.533.715 2.243 1.061 4.536 2.209 12.978 6.32 12.99 14.756a2 2 0 0 1-1.997 2.003z"/>
    <path d="M18 48h-.003A2 2 0 0 1 16 45.997c.013-8.783 8.72-12.841 15.078-15.804.758-.353 1.491-.694 2.181-1.03C38.452 26.634 43.992 23.477 44 17.997A2 2 0 0 1 46 16h.003A2 2 0 0 1 48 18.003c-.012 8.436-8.454 12.547-12.99 14.756-.71.346-1.463.697-2.243 1.061C26.788 36.606 20.009 39.765 20 46.003A2 2 0 0 1 18 48m28 10a2 2 0 0 1-2-2V46a2 2 0 0 1 4 0v10a2 2 0 0 1-2 2"/>
    <path d="M18 58a2 2 0 0 1-2-2V46a2 2 0 0 1 4 0v10a2 2 0 0 1-2 2m28-38a2 2 0 0 1-2-2V8a2 2 0 0 1 4 0v10a2 2 0 0 1-2 2m-28 0a2 2 0 0 1-2-2V8a2 2 0 0 1 4 0v10a2 2 0 0 1-2 2"/>
    <path d="M50 10H14a2 2 0 0 1 0-4h36a2 2 0 0 1 0 4"/>
</svg>
