<svg xmlns="http://www.w3.org/2000/svg" xml:space="preserve" width="auto" height="1em" fill="currentColor" viewBox="0 0 512 512">
    <path d="M472.019 365.888h-14.903V347.07c0-44.556-36.249-80.803-80.804-80.803H274.35v-69.593h44.7c22.045 0 39.98-17.935 39.98-39.981V59.645c0-22.045-17.935-39.981-39.98-39.981H199.623c-22.045 0-39.98 17.935-39.98 39.981v97.047c0 22.045 17.935 39.981 39.98 39.981h44.7v69.593H136.354c-44.556 0-80.802 36.248-80.802 80.803v18.818H39.981C17.935 365.888 0 383.823 0 405.869v46.486c0 22.045 17.935 39.98 39.981 39.98h61.166c22.045 0 39.98-17.935 39.98-39.98v-46.486c0-22.046-17.935-39.981-39.98-39.981H85.578V347.07c0-27.997 22.778-50.775 50.775-50.775h107.969v69.593h-15.569c-22.046 0-39.981 17.935-39.981 39.981v46.486c0 22.045 17.935 39.98 39.981 39.98h61.166c22.045 0 39.98-17.935 39.98-39.98v-46.486c0-22.046-17.935-39.981-39.98-39.981H274.35v-69.593h101.964c27.998 0 50.776 22.778 50.776 50.775v18.818h-16.237c-22.045 0-39.98 17.935-39.98 39.981v46.486c0 22.045 17.935 39.98 39.98 39.98h61.166c22.046 0 39.981-17.935 39.981-39.98v-46.486c0-22.046-17.935-39.981-39.981-39.981m-370.871 30.027c5.488 0 9.953 4.466 9.953 9.954v46.486c0 5.488-4.465 9.953-9.953 9.953H39.982c-5.488 0-9.954-4.465-9.954-9.953v-46.486c0-5.488 4.466-9.954 9.954-9.954zm188.772 0c5.488 0 9.953 4.466 9.953 9.954v46.486c0 5.488-4.465 9.953-9.953 9.953h-61.166c-5.488 0-9.954-4.465-9.954-9.953v-46.486c0-5.488 4.466-9.954 9.954-9.954zm-90.297-229.268c-5.488 0-9.953-4.466-9.953-9.954V59.645c0-5.488 4.465-9.954 9.953-9.954h119.426c5.488 0 9.953 4.465 9.953 9.954v97.047c0 5.488-4.465 9.954-9.953 9.954zm282.35 285.709c0 5.488-4.466 9.953-9.954 9.953h-61.166c-5.488 0-9.953-4.465-9.953-9.953V405.87c0-5.488 4.465-9.954 9.953-9.954h61.166c5.488 0 9.954 4.465 9.954 9.954z"/>
</svg>
