<svg xmlns="http://www.w3.org/2000/svg" xml:space="preserve" viewBox="0 0 512 512" fill="currentColor">
    <path d="M256 512C115.041 512 0 396.95 0 256 0 115.041 115.05 0 256 0c140.959 0 256 115.049 256 256 0 140.959-115.049 256-256 256m0-482C131.383 30 30 131.383 30 256s101.383 226 226 226 226-101.383 226-226S380.617 30 256 30"/>
    <path d="M256 331c-8.284 0-15-6.716-15-15v-16.054c0-26.691 14.365-51.581 37.489-64.958C292.374 226.957 301 212.017 301 196c0-24.813-20.187-45-45-45s-45 20.187-45 45c0 8.284-6.716 15-15 15s-15-6.716-15-15c0-41.355 33.645-75 75-75s75 33.645 75 75c0 26.69-14.365 51.58-37.489 64.957C279.626 268.989 271 283.929 271 299.946V316c0 8.284-6.716 15-15 15"/>
    <circle cx="256" cy="376" r="15"/>
</svg>