<svg xmlns="http://www.w3.org/2000/svg" width="auto" height="1em" fill="currentColor" viewBox="0 0 105 105">
    <path d="M27.57 19.74c5.335 0 9.661-4.221 9.661-9.428S32.905.885 27.57.885s-9.662 4.22-9.662 9.427 4.326 9.427 9.662 9.427m25.963 28.514C48.8 39.097 39.179 23.734 27.569 23.734S6.297 39.097 1.605 48.253a13.9 13.9 0 0 0-1.218 9.682c.779 3.266 2.717 6.158 5.472 8.164a8.8 8.8 0 0 0 5.17 1.9c1.84-.01 3.657-.407 5.327-1.163a13.1 13.1 0 0 0 5.805-5.044q.117-.245.279-.465a6.06 6.06 0 0 1 2.082-1.952 6.24 6.24 0 0 1 2.769-.803h.556a6.24 6.24 0 0 1 2.79.795 6.06 6.06 0 0 1 2.1 1.96l.359.62a12.95 12.95 0 0 0 4.714 4.389 13.3 13.3 0 0 0 6.3 1.625 9.03 9.03 0 0 0 5.486-2.134 14.27 14.27 0 0 0 5.151-8.108 14 14 0 0 0-1.214-9.466M48.88 58.805a4.4 4.4 0 0 1-.517.737 6.1 6.1 0 0 1-2.279 1.39 6.19 6.19 0 0 1-5.207-.58 6 6 0 0 1-1.898-1.857 2.2 2.2 0 0 1-.358-.582 13 13 0 0 0-3.42-3.608 15.3 15.3 0 0 0-2.305-1.32 13.1 13.1 0 0 0-5.05-1.124h-.795a13.2 13.2 0 0 0-4.89 1.125c-.818.354-1.591.796-2.307 1.319a12.6 12.6 0 0 0-3.539 3.88l-.238.426a6 6 0 0 1-2.287 2.072 6.17 6.17 0 0 1-3.041.683 5.6 5.6 0 0 1-2.62-.714 5.5 5.5 0 0 1-1.953-1.847 5.62 5.62 0 0 1-.358-5.315c8.35-17.962 16.422-21.57 21.75-21.57 7.554 0 14.79 7.138 21.47 21.182a6.53 6.53 0 0 1-.158 5.703"/>
</svg>
