<svg xmlns="http://www.w3.org/2000/svg" width="auto" height="1em" fill="currentColor" viewBox="0 0 105 105">
    <path d="M80.263 20.996C69.467 12.953 56.316 8.602 42.798 8.602s-26.669 4.35-37.465 12.394a2.776 2.776 0 0 1-3.666-.374 2.7 2.7 0 0 1-.71-1.82c0-.674.25-1.323.706-1.824 21.146-22.637 61.168-22.637 82.314 0a2.7 2.7 0 0 1-.06 3.557 2.78 2.78 0 0 1-3.567.461zm-23.637 26.05a29.6 29.6 0 0 0-13.806-3.585 30.4 30.4 0 0 0-13.981 3.629c-.66.331-1.428.39-2.132.163a2.8 2.8 0 0 1-1.626-1.373 2.78 2.78 0 0 1 .262-2.679 21.8 21.8 0 0 1 7.776-6.097 22.05 22.05 0 0 1 9.701-2.068c3.351-.056 6.67.652 9.701 2.068a21.8 21.8 0 0 1 7.776 6.097 2.744 2.744 0 0 1-.138 3.494 2.82 2.82 0 0 1-3.489.567z"/>
    <path d="M69.078 34.562a44.46 44.46 0 0 0-26.215-8.534 44.46 44.46 0 0 0-26.215 8.534 2.78 2.78 0 0 1-3.561-.392 2.7 2.7 0 0 1-.152-3.54 39.3 39.3 0 0 1 13.468-9.902 39.7 39.7 0 0 1 16.416-3.447 40 40 0 0 1 16.484 3.463 39.6 39.6 0 0 1 13.532 9.93 2.703 2.703 0 0 1-.102 3.625 2.775 2.775 0 0 1-3.655.306zM42.82 66.356a6.56 6.56 0 0 1-3.651-1.069 6.45 6.45 0 0 1-2.422-2.906 6.93 6.93 0 0 1-.393-3.758 6.63 6.63 0 0 1 1.835-3.327 6.53 6.53 0 0 1 3.32-1.77 6.67 6.67 0 0 1 3.786.38 6.6 6.6 0 0 1 2.943 2.384 6.34 6.34 0 0 1 1.136 3.586 6.44 6.44 0 0 1-1.923 4.58 6.68 6.68 0 0 1-4.63 1.9"/>
</svg>
