<svg xmlns="http://www.w3.org/2000/svg" xml:space="preserve" width="auto" height="1em" fill="currentColor" viewBox="0 0 32 32">
    <path d="M24.717 8.613c-2.372 0-4.551 1.797-6.363 3.436a35 35 0 0 0-2.352 2.344 33 33 0 0 0-2.349-2.344C11.84 10.41 9.664 8.613 7.291 8.613 3.27 8.613 0 11.941 0 16s3.27 7.387 7.291 7.387c2.373 0 4.551-1.797 6.362-3.436a34 34 0 0 0 2.349-2.344 34 34 0 0 0 2.352 2.344c1.813 1.639 3.991 3.436 6.363 3.436C28.737 23.387 32 20.059 32 16s-3.262-7.387-7.283-7.387m-12.496 9.758c-1.685 1.521-3.864 2.881-4.93 2.881-2.852 0-5.158-2.33-5.158-5.252s2.308-5.252 5.158-5.252c1.064 0 3.245 1.359 4.93 2.881 1.308 1.182 1.89 1.898 2.301 2.371-.412.473-.994 1.189-2.301 2.371m12.496 2.881c-1.064 0-3.246-1.359-4.931-2.881-1.305-1.18-1.889-1.898-2.3-2.371.411-.473.995-1.191 2.3-2.371 1.685-1.521 3.865-2.881 4.931-2.881 2.852 0 5.149 2.33 5.149 5.252s-2.298 5.252-5.149 5.252"/>
</svg>
