<svg xmlns="http://www.w3.org/2000/svg" xml:space="preserve" viewBox="0 0 24 24" fill="currentColor">
    <path d="M20.659 7.751H17a.75.75 0 0 1 0-1.5h2.956l.213-3.3a.763.763 0 0 1 .8-.7.75.75 0 0 1 .7.8l-.258 4a.75.75 0 0 1-.752.7"/>
    <path d="M12 22.75a10.75 10.75 0 1 1 9.312-16.125.75.75 0 0 1-1.3.75A9.253 9.253 0 1 0 21.25 12a.75.75 0 0 1 1.5 0A10.76 10.76 0 0 1 12 22.75"/>
    <path d="M16 15.75a.75.75 0 0 1-.449-.15l-4-3a.75.75 0 0 1-.3-.6V7a.75.75 0 0 1 1.5 0v4.625l3.7 2.775A.75.75 0 0 1 16 15.75"/>
</svg>