<svg xmlns="http://www.w3.org/2000/svg" height="1em" fill="currentColor" viewBox="0 0 105 105">
    <path d="M52.277 71.326c.627 0 1.212.125 1.797.376 4.724 2.132 7.483 7.483 9.197 11.287a1.6 1.6 0 0 1-.126 1.505 1.67 1.67 0 0 1-1.38.752c-.459 0-.877-.209-1.211-.543l-.46-.544c-2.049-2.383-4.348-5.058-6.772-6.897-.293-.251-.669-.335-1.045-.335s-.753.126-1.045.335c-2.425 1.84-4.766 4.514-6.814 6.897l-.418.502c-.292.376-.752.543-1.212.543-.544 0-1.045-.292-1.38-.752a1.6 1.6 0 0 1-.125-1.505c1.672-3.804 4.473-9.155 9.196-11.287a4.5 4.5 0 0 1 1.798-.376zm-16.09-9.28c.293.543.502 1.129.543 1.756.502 5.141-2.717 10.241-5.183 13.585-.335.46-.836.67-1.38.67s-1.045-.335-1.337-.795a1.51 1.51 0 0 1-.126-1.338l.251-.669c1.045-2.968 2.216-6.27 2.592-9.321.042-.377 0-.753-.209-1.087-.21-.335-.46-.586-.836-.753-2.8-1.212-6.312-1.839-9.405-2.424l-.67-.126c-.46-.083-.877-.376-1.086-.752-.251-.46-.293-1.045 0-1.547.25-.46.71-.794 1.254-.836 4.138-.46 10.158-.71 14.38 2.3q.752.563 1.254 1.379zm-.002-18.641a3.94 3.94 0 0 1-1.254 1.38c-4.222 3.01-10.2 2.758-14.38 2.298a1.58 1.58 0 0 1-1.254-.836 1.68 1.68 0 0 1 .042-1.546 1.55 1.55 0 0 1 1.087-.753l.71-.125c3.052-.585 6.563-1.254 9.364-2.425.376-.167.627-.418.836-.752s.25-.71.209-1.087c-.376-3.051-1.547-6.396-2.592-9.363l-.209-.628a1.51 1.51 0 0 1 .126-1.337c.25-.46.794-.795 1.337-.795.544 0 1.045.21 1.38.67 2.466 3.343 5.685 8.443 5.183 13.585-.042.627-.25 1.212-.543 1.756zm16.092-9.281a4.5 4.5 0 0 1-1.798-.376c-4.723-2.132-7.482-7.483-9.196-11.287a1.6 1.6 0 0 1 .125-1.505 1.67 1.67 0 0 1 1.38-.752c.46 0 .878.21 1.212.543l.46.544c2.048 2.383 4.347 5.058 6.772 6.897.292.251.669.335 1.045.335a1.83 1.83 0 0 0 1.045-.335c2.424-1.839 4.765-4.514 6.814-6.897l.418-.502c.292-.376.752-.543 1.212-.543.543 0 1.045.293 1.38.752.292.46.334 1.004.125 1.505-1.672 3.804-4.473 9.155-9.197 11.287-.585.25-1.17.376-1.797.376zm16.137 9.323c-.293-.544-.502-1.129-.543-1.756-.502-5.142 2.717-10.242 5.183-13.586.334-.46.836-.669 1.38-.669s1.044.335 1.337.795c.25.418.293.878.126 1.337l-.251.67c-1.045 2.967-2.216 6.27-2.592 9.321-.042.376 0 .753.209 1.087s.46.585.836.752c2.8 1.213 6.312 1.84 9.405 2.425l.67.125c.46.084.877.377 1.086.753.251.46.293 1.045 0 1.546-.25.46-.71.795-1.254.836-4.138.46-10.158.711-14.38-2.299a5 5 0 0 1-1.254-1.38zm.001 18.6a3.94 3.94 0 0 1 1.254-1.38c4.222-3.01 10.2-2.759 14.38-2.299a1.58 1.58 0 0 1 1.254.836c.251.502.21 1.087-.042 1.547-.25.418-.627.669-1.086.752l-.711.126c-3.052.585-6.563 1.254-9.364 2.424-.376.167-.627.418-.836.753-.209.334-.25.71-.209 1.087.376 3.051 1.547 6.395 2.592 9.363l.209.627c.167.46.125.92-.125 1.338-.251.46-.795.794-1.338.794s-1.045-.209-1.38-.669c-2.466-3.344-5.685-8.444-5.183-13.585.042-.627.25-1.213.543-1.756z"/>
    <path d="M45.173 44.36a11.12 11.12 0 0 0-3.72 6.312l-4.473-2.591-1.463-.836-2.425-1.38h-.041l-5.853-3.428-7.566-4.347a3.68 3.68 0 0 1-1.839-3.177c0-.627.167-1.254.502-1.84 1.003-1.713 3.26-2.34 4.974-1.337l7.566 4.348h.042l5.81 3.427h.042l2.508 1.421 1.38.795zm0 16.722-4.556 2.633-1.38.794-2.508 1.422h-.042l-5.81 3.386h-.042l-7.566 4.389c-1.714 1.003-3.971.418-4.974-1.338a3.7 3.7 0 0 1-.502-1.84c0-1.253.669-2.507 1.84-3.176l7.565-4.348 5.853-3.427h.041l2.425-1.38 1.463-.836 4.473-2.591a11.12 11.12 0 0 0 3.72 6.312m10.784-43.975v25.207a10.8 10.8 0 0 0-3.678-.627q-1.944 0-3.637.627V17.107a3.684 3.684 0 0 1 3.679-3.678c2.048 0 3.636 1.672 3.636 3.678m0 46.023v25.206c0 2.007-1.63 3.679-3.636 3.679s-3.679-1.672-3.679-3.679V63.13q1.693.627 3.637.627c1.296 0 2.508-.21 3.678-.627m30.851-28.217a3.68 3.68 0 0 1-1.84 3.177l-7.565 4.347-5.853 3.428-2.508 1.421-1.38.795-4.514 2.633a11.1 11.1 0 0 0-3.72-6.354l4.556-2.633 1.38-.794 2.508-1.422h.041l5.811-3.386 7.608-4.389c1.756-1.003 3.971-.376 4.974 1.338.335.585.502 1.212.502 1.839m0 35.617c0 .627-.167 1.254-.502 1.839-1.003 1.756-3.218 2.34-4.974 1.338l-7.608-4.39-5.81-3.344h-.042l-2.508-1.463-1.38-.794-4.556-2.634a11.1 11.1 0 0 0 3.72-6.354l4.515 2.634 1.38.794 2.507 1.422 5.81 3.427 7.567 4.348a3.68 3.68 0 0 1 1.84 3.177z"/>
    <path d="M69.837 50.924a14 14 0 0 0-.418-2.3 7 7 0 0 0-.376-1.337 16.7 16.7 0 0 0-3.678-6.354c-.293-.376-.627-.669-.962-.961a10 10 0 0 0-1.797-1.505c-.962-.752-2.007-1.338-3.136-1.84a12 12 0 0 0-2.131-.794c-.46-.167-.92-.25-1.38-.334-1.17-.293-2.424-.418-3.678-.418q-1.882 0-3.637.376-.69.126-1.38.377c-.752.167-1.463.46-2.132.794-1.128.46-2.173 1.087-3.135 1.797-.627.418-1.254.962-1.797 1.505-.376.293-.71.627-.962 1.003-1.672 1.798-2.968 3.93-3.72 6.312a8 8 0 0 0-.376 1.422c-.21.71-.335 1.463-.418 2.215-.042.627-.084 1.254-.084 1.84 0 .585.042 1.212.084 1.797.083.794.209 1.547.418 2.299q.125.69.376 1.38c.752 2.382 2.048 4.514 3.72 6.312.251.376.586.71.962 1.003.543.543 1.17 1.087 1.797 1.505.962.71 2.007 1.337 3.135 1.797.67.335 1.38.627 2.132.794q.69.252 1.38.377 1.756.376 3.637.376c1.881 0 2.508-.125 3.678-.418.46-.084.92-.167 1.38-.335a12 12 0 0 0 2.132-.794c1.128-.501 2.173-1.087 3.135-1.84a10 10 0 0 0 1.797-1.504c.334-.293.669-.585.962-.961a16.7 16.7 0 0 0 3.678-6.354c.167-.418.293-.878.376-1.338.21-.752.335-1.505.418-2.3.042-.584.084-1.211.084-1.797s-.042-1.212-.084-1.797m-6.688 3.804a11.1 11.1 0 0 1-3.72 6.354c-.418.376-.836.71-1.296.961a7 7 0 0 1-.753.46c-.46.25-.92.46-1.42.627a10.8 10.8 0 0 1-3.68.627q-1.943 0-3.636-.627a7.3 7.3 0 0 1-1.422-.627 7 7 0 0 1-.752-.46c-.46-.25-.878-.585-1.296-.961a11.12 11.12 0 0 1-3.72-6.312 21 21 0 0 1-.167-1.63v-.837a21 21 0 0 1 .167-1.63 11.12 11.12 0 0 1 3.72-6.312c.418-.376.836-.71 1.296-.961.25-.168.502-.335.752-.46.419-.251.92-.46 1.422-.627q1.692-.627 3.637-.627c1.295 0 2.508.209 3.678.627.502.167.962.376 1.421.627.251.125.502.292.753.46.46.25.878.585 1.296.961a11.1 11.1 0 0 1 3.72 6.354c.084.543.125 1.045.167 1.588v.837c0 .543-.083 1.044-.167 1.588"/>
</svg>
