<svg xmlns="http://www.w3.org/2000/svg" height="1em" fill="currentColor" viewBox="0 0 105 105">
    <path d="M39.824 84.11c-1.467 0-2.89-.13-4.314-.431-2.76-.648-5.004-2.29-6.212-4.621-2.415-4.319-3.408-9.674-2.933-16.195-4.314-5.096-6.73-10.062-7.29-15.114-.345-2.635.517-5.312 2.33-7.342 3.364-3.714 8.152-6.305 14.623-7.86 3.45-5.613 7.505-9.543 12.035-11.616 2.502-1.08 5.22-1.08 7.635 0 4.573 2.073 8.498 5.83 11.992 11.487 6.514 1.555 11.346 4.146 14.797 7.903 1.811 1.943 2.674 4.577 2.415 7.255-.56 5.01-2.933 9.932-7.204 15.028.475 6.694-.474 12.135-2.933 16.497-1.251 2.289-3.537 3.973-6.255 4.491-4.875.993-10.267.26-16.349-2.202-4.486 1.857-8.584 2.763-12.337 2.763zm12.121-56.442c-.258 0-.517.043-.82.172-3.364 1.555-6.556 4.924-9.446 9.933-.518.95-1.467 1.598-2.502 1.814-5.694 1.209-9.706 3.109-12.208 5.916-.345.389-.518.864-.431 1.339.43 3.843 2.588 7.816 6.556 12.221a3.64 3.64 0 0 1 .95 2.937c-.605 5.614 0 10.148 1.897 13.43.26.432.69.734 1.208.864 3.624.734 8.11-.087 13.502-2.505.992-.432 2.114-.432 3.063 0 5.263 2.332 9.62 3.11 13.33 2.375a1.55 1.55 0 0 0 1.12-.777c1.899-3.368 2.503-7.86 1.899-13.733a3.55 3.55 0 0 1 .949-2.893c3.796-4.276 5.953-8.292 6.384-12.049.043-.475-.13-.95-.431-1.339-2.588-2.85-6.773-4.836-12.424-6.002-1.035-.216-1.984-.864-2.502-1.814-2.89-5.053-5.996-8.248-9.404-9.803a2 2 0 0 0-.69-.13z"/>
</svg>
