<svg xmlns="http://www.w3.org/2000/svg" height="1em" fill="currentColor" viewBox="0 0 105 105">
    <path d="M69.74 63.943c-2.8 0-5.556-.642-8.097-1.883-5.729 2.311-12.533 2.482-18.477.343-2.454 1.027-5.082 1.54-7.795 1.54-11.24 0-20.371-9.071-20.371-20.24 0-9.327 6.546-17.457 15.548-19.64 4.737-7.06 12.79-11.381 21.404-11.381 10.638 0 20.027 6.375 23.946 16.088C83.004 31.295 88 38.184 88 45.843c0 9.97-8.183 18.1-18.26 18.1m-7.925-9.799c.689 0 1.421.214 2.024.6a11.13 11.13 0 0 0 5.9 1.711c5.944 0 10.724-4.75 10.724-10.612 0-4.92-3.488-9.285-8.312-10.355-1.292-.3-2.369-1.24-2.756-2.524-2.412-7.617-9.432-12.751-17.443-12.751-6.503 0-12.576 3.508-15.806 9.114-.56.984-1.593 1.668-2.713 1.84-6.202.898-10.896 6.332-10.896 12.58 0 7.017 5.771 12.75 12.834 12.75 2.11 0 4.135-.513 5.9-1.454a3.76 3.76 0 0 1 3.317-.128c4.866 2.182 10.81 2.01 15.504-.343a3.9 3.9 0 0 1 1.723-.385zm5.986 12.709-9.776 12.023c-3.316 3.98-8.183 10.056-11.413 13.992-1.464 1.797-4.48.343-4.005-1.882.129-1.07.43-3.081.603-4.194a913 913 0 0 1 1.593-10.783l-10.207-.513c-1.68.043-2.67-2.054-1.593-3.295l3.057-3.765a4.03 4.03 0 0 1 3.187-1.54h3.317l-3.532 4.321 8.872-.47c1.421-.043 2.67 1.026 2.756 2.481.259-.3-2.11 9.713-2.11 9.842-.086.385-.172.855-.301 1.369 2.325-2.824 4.78-5.862 6.546-8.044l6.503-8.002a4.12 4.12 0 0 1 3.187-1.498h3.316z"/>
</svg>
