<svg xmlns="http://www.w3.org/2000/svg" height="1em" fill="currentColor" viewBox="0 0 105 105">
    <path d="M86.344 68.337 62.022 23.884c-4.017-7.38-14.585-7.38-18.602 0L19.097 68.337c-3.842 7.074 1.267 15.677 9.301 15.677h48.645c8.035 0 13.144-8.603 9.301-15.677m-13.798 7.73h-39.65c-4.061 0-6.594-4.324-4.672-7.86l19.824-36.244c2.01-3.712 7.293-3.712 9.301 0l19.869 36.243c1.921 3.537-.655 7.86-4.672 7.86Z"/>
    <path d="m56 41.078-1.092 16.55c-.087 1.223-1.135 2.14-2.314 2.053a2.24 2.24 0 0 1-2.053-2.053l-1.091-16.55c-.175-4.585 6.724-4.585 6.55 0m-3.278 29.307c-.524 0-1.048-.175-1.529-.48a3.04 3.04 0 0 1-1.004-1.223c-.218-.48-.262-1.048-.175-1.572a2.58 2.58 0 0 1 .743-1.398 2.58 2.58 0 0 1 1.397-.742c.524-.087 1.092-.044 1.572.175s.917.567 1.223 1.004c.305.437.48.96.48 1.528 0 .743-.306 1.398-.786 1.922a2.7 2.7 0 0 1-1.921.786"/>
</svg>
