<svg xmlns="http://www.w3.org/2000/svg" height="1em" fill="currentColor" viewBox="0 0 105 105">
    <path d="M41.385 26.415c43.509.8 43.465 64.756 0 65.556-4.868-.178-4.868-7.6 0-7.778 21.228-.267 32.193-27.2 17.193-42.4-4.474-4.578-10.702-7.378-17.193-7.6-4.912-.222-4.868-7.556 0-7.778"/>
    <path d="M50.464 18.548 36.56 33.438V27.17l13.904 14.89a3.956 3.956 0 0 1-.132 5.51c-1.49 1.423-3.815 1.423-5.263 0L30.332 33.438c-1.798-1.689-1.754-4.577 0-6.266l14.693-14.09c3.553-3.377 8.772 1.912 5.439 5.512z"/>
</svg>
