<svg xmlns="http://www.w3.org/2000/svg" width="auto" height="1em" fill="currentColor" viewBox="0 0 134 32">
    <path d="M52.245 8.249c-1.08 0-3.27.264-4.212.507-3.34.866-5.074 2.792-4.836 5.373q.218 2.348 2.593 3.55c1.508.76 2.956 1.15 5.704 1.535 3.952.552 4.993.808 5.325 1.314.24.358.055.765-.478 1.06-1.4.778-5.657.638-9.196-.305-1.327-.361-2.703-.957-3.935-1.509v4.48l.408.146c1.408.508 5 1.236 7.058 1.43 1.326.124 3.84.127 4.912.007 2.61-.293 4.846-1.322 5.922-2.722 1.337-1.744 1.227-4.309-.246-5.677-1.292-1.2-3.351-1.853-7.468-2.366-3.397-.426-4.742-.765-5.01-1.255-.324-.601.126-1.142 1.19-1.435.558-.154 1.04-.19 2.437-.187 2.766.003 5.275.446 7.417 1.315.544.218 1.018.4 1.059.4l.07-3.94-.283-.143c-1.533-.778-5.802-1.578-8.428-1.581h-.003zm10.567 1.197v3.917l6.393.05.065 11.922h4.909l.046-11.923 6.395-.05V9.447zm38.006-1.197c-6.835 0-11.25 3.467-11.25 8.832s4.415 8.855 11.25 8.855 11.281-3.475 11.281-8.855-4.426-8.832-11.281-8.832m0 13.652c-3.37 0-5.383-1.802-5.383-4.82 0-3.017 2.013-4.82 5.383-4.82s5.417 1.803 5.417 4.82-2.027 4.82-5.417 4.82m27.416-12.455v8.581l-9.065-8.581h-5.729v15.82h5.748v-9.037l9.651 9.037h5.168V9.446h-5.775zm-45.755 0h5.749v15.818h-5.75zm-66.08 7.59c1.67-.703 2.646-1.894 2.646-3.326 0-2.61-3.008-4.23-7.853-4.23H0V25.3h11.805c4.932 0 8.12-1.77 8.12-4.509 0-1.719-1.262-3.04-3.527-3.754zm-5.968-1.241H5.747v-2.98h4.626c1.442 0 2.896.455 2.896 1.468s-1.426 1.51-2.838 1.51zm-4.684 2.933H10.9c1.89 0 3.162.643 3.162 1.597s-1.273 1.617-3.162 1.617H5.747zm19.308-.405c2.622-2.827 5.247-5.658 7.887-8.5 1.002 3.73 2.005 7.442 3.002 11.145 1.61.39 5.428 1.319 5.43 1.319A32622 32622 0 0 0 35.387.002C30.107 5.69 24.882 11.32 19.613 17q2.726.662 5.443 1.325zM39.25 31.615c1.9.451 3.801.496 5.613.195q-.863-.088-1.724-.293c-6.342-1.505-10.475-7.357-9.944-13.587l-4.632-1.098c-.652 6.767 3.81 13.15 10.69 14.783z"/>
</svg>
