<svg xmlns="http://www.w3.org/2000/svg" width="auto" height="1em" fill="currentColor" viewBox="0 0 105 105">
    <mask id="a" width="100" height="46" x="2" y="29" maskUnits="userSpaceOnUse">
        <path fill="#fff" d="M2 29h100v46H2z"/>
        <path d="M7 41.835C7 37.508 10.526 34 14.875 34h74.25C93.475 34 97 37.508 97 41.835V61.98c0 4.328-3.526 7.835-7.875 7.835h-74.25C10.525 69.816 7 66.31 7 61.981z"/>
        <path d="M51.443 61.982V42.394h4.556V61.98zm9.312 0V42.394H69.7q3.207 0 5.653 1.23 2.447 1.204 3.825 3.386t1.378 5.177q0 2.966-1.378 5.177-1.378 2.183-3.825 3.413-2.446 1.203-5.653 1.203zm4.557-3.722h4.162q1.97 0 3.403-.728 1.462-.755 2.25-2.126.816-1.371.816-3.218 0-1.875-.816-3.218a5.2 5.2 0 0 0-2.25-2.099q-1.434-.755-3.403-.755h-4.162z"/>
    </mask>
    <path d="M7 41.835C7 37.508 10.526 34 14.875 34h74.25C93.475 34 97 37.508 97 41.835V61.98c0 4.328-3.526 7.835-7.875 7.835h-74.25C10.525 69.816 7 66.31 7 61.981z"/>
    <path fill="#dbebf8" d="M51.443 61.982V42.394h4.556V61.98zm9.312 0V42.394H69.7q3.207 0 5.653 1.23 2.447 1.204 3.825 3.386t1.378 5.177q0 2.966-1.378 5.177-1.378 2.183-3.825 3.413-2.446 1.203-5.653 1.203zm4.557-3.722h4.162q1.97 0 3.403-.728 1.462-.755 2.25-2.126.816-1.371.816-3.218 0-1.875-.816-3.218a5.2 5.2 0 0 0-2.25-2.099q-1.434-.755-3.403-.755h-4.162z"/>
    <path d="M51.443 61.982h-5v5h5zm0-19.587v-5h-5v5zm4.556 0h5v-5h-5zm0 19.586v5h5v-5zm4.756 0h-5v5h5zm0-19.586v-5h-5v5zm14.597 1.23-2.247 4.467.02.01.02.01zm3.825 13.74 4.228 2.67.008-.013.007-.012zm-3.825 3.413 2.207 4.487.02-.01.02-.01zm-10.04-2.518h-5v5h5zm7.565-.728 2.262 4.46.017-.009.016-.008zm2.25-2.126L70.83 52.85l-.02.032-.019.034zm0-6.436-4.335 2.49.03.053.031.052zm-2.25-2.099-2.33 4.424.051.027.052.026zm-7.565-.755v-5h-5v5zM14.875 39h74.25V29h-74.25zM92 41.835V61.98h10V41.835zm-2.875 22.981h-74.25v10h74.25zM12 61.981V41.835H2V61.98zm2.875 2.835c-1.612 0-2.875-1.293-2.875-2.835H2c0 7.113 5.788 12.835 12.875 12.835zM92 61.981c0 1.542-1.263 2.835-2.875 2.835v10c7.087 0 12.875-5.722 12.875-12.835zM89.125 39C90.737 39 92 40.293 92 41.835h10C102 34.722 96.212 29 89.125 29zm-74.25-10C7.788 29 2 34.722 2 41.835h10C12 40.293 13.263 39 14.875 39zm41.568 32.982V42.394h-10V61.98zm-5-14.587h4.556v-10h-4.556zm-.444-5V61.98h10V42.396zm5 14.586h-4.556v10h4.556zm9.756 5V42.396h-10V61.98zm-5-14.586H69.7v-10h-8.944zm8.944 0c1.49 0 2.582.282 3.406.697L77.6 39.16c-2.438-1.227-5.116-1.764-7.9-1.764zm3.447.717c.851.42 1.406.94 1.803 1.569l8.456-5.34c-1.44-2.28-3.435-4.017-5.846-5.202zm1.803 1.569c.338.535.606 1.302.606 2.507h10c0-2.787-.65-5.471-2.15-7.846zm.606 2.507c0 1.175-.263 1.957-.62 2.531l8.485 5.29c1.48-2.372 2.135-5.041 2.135-7.821zm-.606 2.507c-.404.64-.972 1.178-1.844 1.617l4.495 8.933c2.39-1.203 4.372-2.94 5.805-5.21zm-1.803 1.596c-.834.41-1.94.69-3.447.69v10c2.769 0 5.431-.522 7.86-1.716zm-3.447.69h-8.944v10H69.7zm-4.387 6.279h4.162v-10h-4.162zm4.162 0c1.925 0 3.868-.357 5.665-1.268l-4.523-8.919c-.116.059-.442.187-1.142.187zm5.698-1.285c1.792-.926 3.267-2.296 4.29-4.079l-8.67-4.98c-.027.045-.051.092-.21.174zm4.252-4.013c1.072-1.802 1.519-3.787 1.519-5.774h-10c0 .475-.098.636-.113.662zm1.519-5.774c0-1.987-.439-3.996-1.542-5.813l-8.547 5.19.011.024a1 1 0 0 1 .027.086c.022.087.05.25.05.513zm-1.48-5.708a10.2 10.2 0 0 0-4.359-4.085l-4.454 8.953c.082.041.11.067.11.068l.008.009.023.035zm-4.256-4.032c-1.813-.955-3.78-1.332-5.733-1.332v10c.673 0 .974.127 1.073.18zm-5.733-1.332h-4.162v10h4.162zm-9.162 5V58.26h10V46.116z" mask="url(#a)"/>
    <path fill="#dbebf8" d="M36.3 42.774c.101.36.202.759.303 1.17L40.4 58.54a.44.44 0 0 1-.53.54c-.895-.218-2.396-.604-3.179-.797-.719-2.74-1.425-5.478-2.144-8.243-1.893 2.109-3.772 4.192-5.652 6.288-1.06-.27-2.12-.527-3.18-.797-.327-.077-.441-.489-.214-.746 3.596-4.012 7.178-7.986 10.8-12.01m0-2.25c-.605 0-1.198.257-1.627.733l-3.104 3.459-8.213 9.105a2.31 2.31 0 0 0-.492 2.173c.227.759.833 1.35 1.59 1.53l3.33.836.568.142c.177.038.354.064.53.064.606 0 1.199-.257 1.628-.733l2.927-3.254v.039l1.11 4.244c.202.797.82 1.414 1.602 1.607l3.886.977a2 2 0 0 0 .542.065c.58 0 1.148-.232 1.564-.669.896-.913.745-1.517.152-3.755l-1.022-3.922-2.561-9.812-.303-1.17a2.21 2.21 0 0 0-1.602-1.608 2.5 2.5 0 0 0-.53-.064z"/>
</svg>
