<svg xmlns="http://www.w3.org/2000/svg" height="1em" fill="currentColor" viewBox="0 0 105 105">
    <path d="M76.636 34.05A575 575 0 0 1 34.05 76.636c-2.231 1.984-5.702 1.736-7.686-.496-1.798-2.107-1.798-5.145 0-7.19 6.633-7.563 13.7-14.692 20.766-21.882 7.19-7.005 14.32-14.072 21.882-20.704 2.231-1.984 5.703-1.736 7.686.495 1.798 2.108 1.798 5.145 0 7.191z"/>
    <path d="M69.012 76.636A564 564 0 0 1 26.364 34.05c-1.984-2.293-1.798-5.703.496-7.686 2.045-1.86 5.145-1.798 7.19 0 7.563 6.632 14.692 13.7 21.882 20.766C63 54.32 70.065 61.45 76.698 69.012c1.984 2.231 1.736 5.703-.496 7.686-2.107 1.798-5.145 1.798-7.19 0z"/>
</svg>
