<svg xmlns="http://www.w3.org/2000/svg" width="auto" height="1em" fill="currentColor" viewBox="0 0 105 105">
    <path d="M60.694 51.66 40.15 40.146c-3.644-2.06-.687-7.658 3.063-5.863l21.126 10.352c4.754 2.377 1.004 9.613-3.696 7.025zm-14.26 10.517 14.471-7.394c4.648-2.324 8.24 4.7 3.591 7.077-.105 0-.21.106-.316.159l-15 6.18c-3.855 1.584-6.443-4.12-2.746-5.969z"/>
    <path d="M32.332 46.327c-7.712 0-13.997-6.285-13.997-13.996s6.285-13.996 13.996-13.996 13.997 6.285 13.997 13.996-6.285 13.996-13.998 13.996Zm0-20.07c-3.328 0-6.074 2.747-6.074 6.074s2.746 6.074 6.073 6.074 6.074-2.747 6.074-6.074-2.746-6.074-6.074-6.074Zm39.35 40.927c-7.711 0-13.997-6.285-13.997-13.996s6.286-13.997 13.997-13.997c7.71 0 13.996 6.285 13.996 13.996s-6.285 13.997-13.996 13.997m0-20.07c-3.328 0-6.074 2.746-6.074 6.074s2.746 6.073 6.074 6.073 6.073-2.746 6.073-6.074-2.746-6.073-6.073-6.073M37.774 83.825c-7.71 0-13.996-6.285-13.996-13.996s6.285-13.996 13.996-13.996S51.77 62.118 51.77 69.829s-6.285 13.996-13.996 13.996m0-20.07a6.074 6.074 0 0 0 0 12.148c3.328 0 6.074-2.747 6.074-6.074s-2.746-6.074-6.074-6.074"/>
</svg>
