<svg xmlns="http://www.w3.org/2000/svg" height="1em" fill="currentColor" viewBox="0 0 105 105">
    <path d="M62.5 77.172c8.715-.72 9.515-1.8 10.274-10.394.32-3.199 5.198-3.519 5.957-.44 3.718 11.993-4.797 20.549-16.83 16.79-3.239-.879-2.68-5.756.6-5.956m-22.789 5.955c-12.034 3.718-20.55-4.798-16.831-16.791.8-3.119 5.637-2.719 5.957.44.4 2.758.48 6.516 2.118 8.315 1.8 1.64 5.557 1.719 8.316 2.119 3.198.32 3.518 5.197.44 5.957zM22.88 44.108c-3.717-11.993 4.798-20.548 16.832-16.79 3.118.8 2.718 5.636-.44 5.956-2.759.4-6.517.48-8.316 2.12-1.639 1.798-1.719 5.556-2.118 8.315-.32 3.198-5.198 3.518-5.957.44zm53.613.322L75.973 26l3.998 3.998-18.43-.52c-1.918-.04-3.438-1.679-3.398-3.598a3.475 3.475 0 0 1 3.398-3.398l18.47-.48A3.864 3.864 0 0 1 84.01 26l-.52 18.43c-.12 4.438-6.876 4.438-6.996 0"/>
    <path d="M81.81 29.197c-3.159 3.718-6.597 7.196-9.995 10.674-3.478 3.398-6.956 6.837-10.674 9.995a3.504 3.504 0 0 1-4.957-.44 3.506 3.506 0 0 1 0-4.517c3.158-3.718 6.596-7.196 9.994-10.675 3.478-3.398 6.956-6.836 10.674-9.994a3.504 3.504 0 0 1 4.957.44 3.506 3.506 0 0 1 0 4.517"/>
</svg>
