<svg xmlns="http://www.w3.org/2000/svg" width="auto" height="1em" fill="currentColor" viewBox="0 0 124 124">
    <path d="M25.666 59.607c4.001-6.075 9.431-11.013 15.786-14.357A44 44 0 0 1 61.988 40a44.3 44.3 0 0 1 20.58 5.25c6.343 3.345 11.758 8.284 15.741 14.357.466.87.603 1.885.387 2.852a4.05 4.05 0 0 1-1.559 2.392 3.857 3.857 0 0 1-5.205-.598 39.8 39.8 0 0 0-13.299-11.197 35.8 35.8 0 0 0-16.645-3.764 35.84 35.84 0 0 0-16.646 3.903A39.6 39.6 0 0 0 32.09 64.393a4 4 0 0 1-1.18 1.047 3.88 3.88 0 0 1-3.038.377 3.9 3.9 0 0 1-1.39-.727 4.16 4.16 0 0 1-1.435-2.58 4.23 4.23 0 0 1 .62-2.903"/>
    <path d="M32.09 59.653a40.2 40.2 0 0 0 13.252 11.198 35.8 35.8 0 0 0 16.646 3.856 35.8 35.8 0 0 0 16.646-3.856 40.4 40.4 0 0 0 13.298-11.198 3.93 3.93 0 0 1 2.462-1.127 3.9 3.9 0 0 1 2.596.742 4.1 4.1 0 0 1 1.541 2.272c.24.918.163 1.894-.222 2.76-3.998 6.048-9.41 10.968-15.74 14.31A44.3 44.3 0 0 1 61.988 84a44 44 0 0 1-20.535-5.25c-6.344-3.341-11.771-8.261-15.787-14.311a4.2 4.2 0 0 1-.221-2.76 4.1 4.1 0 0 1 1.54-2.271 3.9 3.9 0 0 1 2.597-.743c.924.07 1.794.47 2.462 1.128z"/>
    <path stroke="currentColor" stroke-linecap="round" stroke-linejoin="round" stroke-width="9" d="M61.988 73.454c6.17 0 11.172-5.139 11.172-11.477s-5.002-11.476-11.172-11.476-11.172 5.138-11.172 11.476 5.002 11.477 11.172 11.477"/>
</svg>
