<svg xmlns="http://www.w3.org/2000/svg" width="auto" height="1em" fill="currentColor" viewBox="0 0 105 105">
    <path d="M22.818 31.874a826 826 0 0 1 59.326 0c2.205.083 3.951 1.797 3.814 3.845-.092 1.88-1.793 3.385-3.814 3.469-9.88.418-19.76.46-29.686.501-9.88-.042-19.76-.083-29.686-.501-2.16-.126-3.86-1.84-3.768-3.845.091-1.881 1.792-3.386 3.814-3.47m11.12 16.301a324 324 0 0 1 37.177 0c4.87.334 4.87 7.02 0 7.313-12.408.711-24.77.711-37.177 0-2.206-.167-3.86-1.922-3.722-3.928.138-1.84 1.746-3.26 3.722-3.386m12.729 16.342c4.504-.586 15.808-2.132 14.705 4.555-.367 1.421-1.608 2.424-3.033 2.759-3.86.71-7.766.71-11.672 0-4.136-.795-4.09-6.562 0-7.314"/>
</svg>
