<svg xmlns="http://www.w3.org/2000/svg" height="1em" fill="currentColor" viewBox="0 0 105 105">
    <path d="m75.708 45.982-.562-20.24 4.323 4.39-19.931-.57c-2.076-.044-3.719-1.844-3.675-3.951.043-2.064 1.686-3.688 3.675-3.732l19.931-.527c2.422-.087 4.41 1.932 4.324 4.39l-.562 20.24c-.13 4.873-7.437 4.873-7.566 0z"/>
    <path d="M81.415 29.255c-3.416 4.083-7.134 7.903-10.809 11.722-3.761 3.732-7.523 7.507-11.544 10.976-1.6 1.36-3.978 1.185-5.361-.483-1.21-1.449-1.168-3.556 0-4.961 3.416-4.083 7.134-7.903 10.809-11.722 3.761-3.732 7.523-7.507 11.544-10.976 1.6-1.36 3.977-1.185 5.361.483 1.21 1.449 1.167 3.556 0 4.961M29.921 59.68l.562 20.238-4.323-4.39 19.931.57c2.075.045 3.718 1.845 3.675 3.952-.043 2.063-1.686 3.688-3.675 3.732l-19.931.527c-2.465.087-4.454-1.932-4.367-4.39l.562-20.24c.13-4.873 7.436-4.873 7.566 0"/>
    <path d="M24.17 76.45c3.416-4.083 7.134-7.902 10.81-11.722 3.761-3.731 7.523-7.507 11.544-10.975 1.6-1.361 3.977-1.186 5.36.483 1.211 1.448 1.168 3.556 0 4.96-3.415 4.084-7.133 7.903-10.808 11.722-3.762 3.732-7.523 7.508-11.544 10.976-1.6 1.361-3.978 1.185-5.361-.483-1.211-1.449-1.168-3.556 0-4.96"/>
</svg>
