<svg xmlns="http://www.w3.org/2000/svg" height="1em" fill="currentColor" viewBox="0 0 105 105">
    <path d="M73.982 33.278s-9.85-12.266-16.71-15.3a9.48 9.48 0 0 0-7.827 0c-6.815 3.034-16.621 15.214-16.621 15.214s-8.487 9.188-8.487 15.733v19.202c0 10.489 8.619 18.984 19.216 18.984h19.524c10.597 0 19.26-8.495 19.26-18.984V48.925c0-6.458-8.355-15.603-8.355-15.603zm.66 34.805c0 6.285-5.19 11.4-11.565 11.4H43.553c-6.332 0-11.52-5.115-11.52-11.4V48.925c0-2.6.879-5.027 2.418-6.978.395-.477.791-.954 1.275-1.344 3.518-3.857 7.255-7.585 11.169-10.662.528-.477 1.1-.91 1.627-1.3 2.858-2.124 6.816-2.124 9.718 0 .527.39 1.1.823 1.627 1.3 4.001 3.164 7.783 6.978 11.389 10.923.264.303.528.563.791.866 1.583 1.95 2.595 4.465 2.595 7.195v19.202z"/>
</svg>
