<svg xmlns="http://www.w3.org/2000/svg" height="1em" fill="currentColor" viewBox="0 0 105 105">
    <path fill-rule="evenodd" d="M59.618 54.44c0 3.544-3.122 6.421-6.948 6.254-3.386-.125-6.156-2.794-6.288-6.004-.088-2.502 1.363-4.712 3.518-5.796v-3.586c0-1.585 1.32-3.003 2.99-3.044 1.76-.042 3.21 1.292 3.21 2.918v3.712c2.11 1.042 3.518 3.127 3.518 5.546" clip-rule="evenodd"/>
    <path d="M62.74 79H43.26C32.663 79 24 70.827 24 60.736V42.264C24 32.173 32.619 24 43.26 24h19.524c10.597 0 19.26 8.173 19.26 18.264v18.514c0 10.05-8.619 18.264-19.26 18.264zM43.26 31.297c-6.376 0-11.52 4.92-11.52 10.925v18.514c0 6.046 5.188 10.925 11.52 10.925h19.524c6.376 0 11.52-4.92 11.52-10.925V42.264c0-6.046-5.188-10.925-11.52-10.925H43.26z"/>
</svg>
