<svg xmlns="http://www.w3.org/2000/svg" height="1em" fill="currentColor" viewBox="0 0 105 105">
    <path d="M67.893 45.669c-5.087.436-10.22.48-15.307.524-5.088-.044-10.22-.088-15.308-.524-2.124-.175-3.716-2.052-3.54-4.148.178-1.877 1.682-3.318 3.54-3.492 5.088-.437 10.22-.48 15.308-.524 5.087.043 10.22.087 15.307.524 2.124.174 3.717 2.052 3.54 4.147-.177 1.877-1.682 3.318-3.54 3.493m0 15.061c-5.087.437-10.22.48-15.307.524-5.088-.044-10.22-.087-15.308-.524-2.124-.174-3.716-2.052-3.54-4.147.178-1.877 1.682-3.318 3.54-3.493 5.088-.436 10.22-.48 15.308-.524 5.087.044 10.22.088 15.307.524 2.124.175 3.717 2.052 3.54 4.148-.177 1.877-1.682 3.318-3.54 3.492"/>
    <path d="M65.814 20.61H39.357c-11.458 0-20.793 9.168-20.793 20.475v16.59c0 7.028 3.627 13.227 9.07 16.938v9.997l10.219-6.461h27.961c11.414 0 20.75-9.211 20.75-20.519V41.042c0-11.307-9.336-20.475-20.75-20.475zm13.007 37.064c0 7.072-5.84 12.879-13.007 12.879H39.357c-7.211 0-13.051-5.806-13.051-12.879v-16.59c0-7.071 5.84-12.834 13.051-12.834h26.457c7.167 0 13.007 5.763 13.007 12.835z"/>
</svg>
