<svg xmlns="http://www.w3.org/2000/svg" width="auto" height="1em" fill="currentColor" viewBox="0 0 105 105">
    <path d="M70.192 67.656c0 1.661-1.412 3.238-3.354 3.238H38.99c-1.941 0-3.354-1.534-3.354-3.238 0-.554.133-1.065.442-1.62L42.61 55.13c.309-.469.441-1.065.441-1.619V42.306c0-5.24 4.413-9.5 9.841-9.5 5.429 0 9.842 4.26 9.842 9.5v11.205c0 .554.132 1.108.44 1.62l6.532 10.906c.31.511.442 1.065.442 1.619m7.722 0c0-1.875-.53-3.707-1.5-5.326l-5.913-9.926V42.306c0-9.373-7.9-16.956-17.564-16.956s-17.565 7.626-17.565 16.956v10.098l-5.913 9.926c-.97 1.62-1.5 3.451-1.5 5.326 0 5.88 4.942 10.694 11.076 10.694h27.847c6.09 0 11.077-4.772 11.077-10.694z"/>
</svg>
