<svg xmlns="http://www.w3.org/2000/svg" height="1em" fill="currentColor" viewBox="0 0 105 105">
    <path d="M32.667 48.548a206.3 206.3 0 0 1 42.267 0c2.085.255 3.606 2.128 3.345 4.17-.217 1.745-1.65 3.064-3.345 3.277-7.037.85-14.074 1.021-21.111 1.064-7.038 0-14.075-.213-21.112-1.064-2.085-.255-3.606-2.128-3.345-4.17.217-1.745 1.65-3.064 3.345-3.277z"/>
    <path d="M57.559 31.612a194 194 0 0 1 0 41.404c-.261 2.043-2.172 3.532-4.257 3.277-1.782-.213-3.128-1.617-3.345-3.277-.87-6.893-1.043-13.787-1.086-20.68 0-6.894.217-13.788 1.086-20.681.26-2.043 2.172-3.532 4.257-3.277 1.78.213 3.127 1.617 3.345 3.277z"/>
</svg>
