<svg xmlns="http://www.w3.org/2000/svg" height="1em" fill="currentColor" viewBox="0 0 105 105">
    <path d="M39.833 19.36c3.078-2.97 7.08-2.97 10.157 0s3.826 9.418 4.046 12.091c0 .212 0 .424-.088.636-.132.382-.484.764-.924.891-.175.085-.44.085-.66.085-2.77-.212-9.497-1.018-12.531-3.903s-3.078-6.83 0-9.8"/>
    <path d="M65.952 19.36c3.078 2.97 3.078 6.831 0 9.8s-9.762 3.692-12.532 3.904c-.22 0-.44 0-.66-.085-.395-.127-.791-.467-.923-.89-.088-.17-.088-.425-.088-.637.22-2.673 1.055-9.164 4.045-12.091 2.99-2.928 7.08-2.97 10.158 0"/>
    <path d="M62.655 87.112h-19.48c-10.598 0-19.26-8.315-19.26-18.582V49.736c0-10.267 8.618-18.582 19.26-18.582h19.524c10.597 0 19.26 8.315 19.26 18.582v18.837c0 10.224-8.62 18.581-19.26 18.581zm-19.48-48.533c-6.376 0-11.521 5.006-11.521 11.115V68.53c0 6.152 5.189 11.115 11.52 11.115H62.7c6.376 0 11.52-5.006 11.52-11.115V49.736c0-6.151-5.188-11.115-11.52-11.115H43.175z"/>
    <path d="M49.067 83.378a526 526 0 0 1 0-48.533c.132-2.037 1.935-3.606 4.045-3.521 1.98.084 3.518 1.654 3.65 3.52.44 8.104.484 16.164.528 24.268-.044 8.102-.088 16.163-.528 24.266-.132 2.037-1.935 3.606-4.045 3.521-1.979-.085-3.518-1.654-3.65-3.52"/>
</svg>
