<svg xmlns="http://www.w3.org/2000/svg" width="auto" height="1em" fill="currentColor" viewBox="0 0 105 105">
    <path d="M76.015 23.278 57.502 30.6l2.589-5.512 6.3 18.861a3.787 3.787 0 0 1-2.373 4.78c-1.899.646-3.97-.344-4.704-2.196l-7.336-18.474c-.907-2.239.302-4.78 2.589-5.512l18.902-6.33c4.575-1.507 7.035 5.297 2.59 7.062z"/>
    <path d="M62.81 25.56c23.606 6.719 30.122 39.23 11.177 54.69-11.566 10.292-30.382 10.292-41.904 0C13.094 64.79 19.61 32.279 43.217 25.56c4.704-1.42 6.948 5.599 2.33 7.192C28.242 38.05 23.28 62.594 37.52 73.834c20.715 17.095 49.672-7.493 35.906-30.618-2.892-4.866-7.596-8.698-13.033-10.507-4.618-1.636-2.33-8.526 2.373-7.148z"/>
</svg>
