<svg xmlns="http://www.w3.org/2000/svg" height="1em" fill="currentColor" viewBox="0 0 105 105">
    <path d="M67.048 62.876c2.886-7.337 2.886-13.46 0-20.796-1.335-2.566 1.766-5.402 4.007-3.736 8.917 6.031 8.917 22.236 0 28.268-2.284 1.666-5.342-1.215-4.007-3.736"/>
    <path d="M76.482 72.643c7.97-12.558 7.97-27.773 0-40.287-1.766-2.565 1.637-5.851 3.92-3.826 14.087 11.164 14.087 36.821 0 47.985-2.326 2.025-5.686-1.306-3.92-3.827zM50.161 34.877c1.68 0 3.274 1.44 3.274 3.421v28.404c0 1.98-1.55 3.42-3.274 3.42-.56 0-1.077-.134-1.637-.45l-11.028-6.661c-.474-.316-1.077-.45-1.637-.45h-2.714c-5.298 0-9.606-4.502-9.606-10.038s4.308-10.038 9.606-10.038h2.714c.56 0 1.12-.136 1.637-.45l11.028-6.662a3.1 3.1 0 0 1 1.637-.45m0-7.878c-1.895 0-3.747.54-5.384 1.53l-10.038 6.032h-1.594C23.711 34.562 16 42.62 16 52.477s7.711 17.916 17.145 17.916h1.594l10.038 6.031c1.637.99 3.489 1.531 5.384 1.531 5.945 0 10.813-5.041 10.813-11.298V38.298C60.974 32.086 56.15 27 50.161 27z"/>
</svg>
