<svg xmlns="http://www.w3.org/2000/svg" width="auto" height="1em" fill="currentColor" viewBox="0 0 105 105">
    <path d="M50.966 34.723c1.67 0 3.255 1.412 3.255 3.354v27.846c0 1.942-1.542 3.354-3.255 3.354-.557 0-1.071-.132-1.628-.441l-10.965-6.532c-.471-.308-1.07-.44-1.628-.44h-2.698c-5.268 0-9.551-4.414-9.551-9.842s4.283-9.841 9.551-9.841h2.698a3.13 3.13 0 0 0 1.628-.441l10.965-6.532a3.1 3.1 0 0 1 1.627-.441m0-7.723c-1.884 0-3.726.53-5.354 1.5l-9.98 5.914h-1.584C24.667 34.414 17 42.313 17 51.978s7.667 17.564 17.047 17.564h1.585l9.98 5.913c1.627.971 3.469 1.5 5.353 1.5 5.911 0 10.751-4.942 10.751-11.076V38.077c0-6.09-4.797-11.077-10.75-11.077zm37.221 20.521a90.5 90.5 0 0 1-13.92 14.343c-1.67 1.323-4.026.97-5.311-.75-1.07-1.413-.985-3.355 0-4.723a90.5 90.5 0 0 1 13.92-14.342c3.427-2.736 7.967 1.986 5.311 5.472"/>
    <path d="M82.875 61.907a90.5 90.5 0 0 1-13.92-14.342c-1.285-1.721-.943-4.148.728-5.472 1.37-1.104 3.255-1.016 4.583 0a90.5 90.5 0 0 1 13.92 14.342c2.656 3.53-1.927 8.208-5.311 5.472"/>
</svg>
