<svg xmlns="http://www.w3.org/2000/svg" height="1em" fill="currentColor" viewBox="0 0 105 105">
    <path d="M50.877 30.048c13.478 0 24.478 10.836 24.478 24.113s-11 24.113-24.478 24.113-24.478-10.836-24.478-24.156 11-24.07 24.478-24.07m0-7.495c-17.74 0-32.087 14.133-32.087 31.565 0 17.431 14.348 31.608 32.087 31.608s32.087-14.134 32.087-31.608-14.391-31.565-32.087-31.565"/>
    <path d="M47.05 32.36a22.16 22.16 0 0 1 0-9.85c.914-3.77 6.74-3.726 7.61 0a22.16 22.16 0 0 1 0 9.85c-.913 3.77-6.74 3.727-7.61 0m25.914 18.032a23.2 23.2 0 0 1 10 0c3.826.9 3.783 6.638 0 7.495a23.2 23.2 0 0 1-10 0c-3.826-.9-3.782-6.639 0-7.495m-25.853 5.595-3.369-.805 1.216-10.81H56.94v3.412h-8.51l-.528 4.732q.425-.249 1.29-.528.864-.293 1.933-.293 1.553 0 2.754.484 1.201.483 2.036 1.406.849.922 1.29 2.256.438 1.333.439 3.017a8.3 8.3 0 0 1-.44 2.71 6.7 6.7 0 0 1-1.333 2.285q-.894.997-2.241 1.568-1.348.57-3.193.571a8.7 8.7 0 0 1-2.666-.41 7.3 7.3 0 0 1-2.3-1.216 6.3 6.3 0 0 1-1.626-1.948q-.6-1.157-.63-2.637h4.19q.087.909.468 1.568.396.644 1.04.996.645.351 1.509.351.806 0 1.377-.307a2.5 2.5 0 0 0 .923-.85q.351-.556.512-1.289a7 7 0 0 0 .176-1.611 5.6 5.6 0 0 0-.205-1.568 3.35 3.35 0 0 0-.63-1.215 2.8 2.8 0 0 0-1.084-.791q-.644-.279-1.509-.279-1.17 0-1.816.366-.63.367-1.055.835"/>
</svg>
