<svg xmlns="http://www.w3.org/2000/svg" height="1em" fill="currentColor" viewBox="0 0 105 105">
    <path d="M52.392 25.746c14.671 0 26.645 11.974 26.645 26.646 0 14.671-11.974 26.645-26.645 26.645-14.672 0-26.646-11.974-26.646-26.645 0-14.672 11.974-26.646 26.646-26.646m0-8.282c-19.31 0-34.928 15.618-34.928 34.928S33.082 87.32 52.392 87.32 87.32 71.701 87.32 52.392c0-19.31-15.666-34.928-34.928-34.928"/>
    <path d="M55.09 37.349c.871 10.565 2.18 11.534 12.6 12.455 3.877.388 4.264 6.3.533 7.221-14.54 4.507-24.91-5.816-20.355-20.403 1.066-3.926 6.979-3.247 7.221.727Z"/>
</svg>
