<svg xmlns="http://www.w3.org/2000/svg" height="1em" fill="currentColor" viewBox="0 0 105 105">
    <path d="M61.182 25.35c-7.47-6.184-8.946-5.923-16.371.087-2.818 2.221-6.889-1.263-5.055-4.224 6.53-12.107 20.04-12.107 26.615 0 1.834 3.179-2.415 6.489-5.189 4.137"/>
    <path d="M27.455 24.653a590 590 0 0 1 51.172 0c2.147.13 3.802 1.916 3.713 4.006-.09 1.96-1.745 3.484-3.713 3.615-8.544.435-17.042.48-25.586.523-8.544-.044-17.042-.087-25.586-.523-2.147-.13-3.802-1.916-3.713-4.007.09-1.96 1.745-3.483 3.713-3.614"/>
    <path d="M61.54 92.111H44.542c-11.585 0-20.978-9.189-20.978-20.425V45.644c0-11.28 9.438-20.468 20.978-20.468H61.54c11.585 0 20.979 9.189 20.979 20.424v26.043c0 11.28-9.439 20.424-20.979 20.424zM44.542 32.797c-7.246 0-13.15 5.748-13.15 12.803v26.043c0 7.055 5.904 12.803 13.15 12.803H61.54c7.246 0 13.15-5.748 13.15-12.803v-26c0-7.054-5.904-12.803-13.15-12.803H44.542z"/>
    <path d="M57.514 74.56c-.447-5.312-.492-10.625-.581-15.938.044-5.313.09-10.626.536-15.94.18-2.09 2.103-3.657 4.25-3.483 1.923.174 3.444 1.655 3.578 3.484.448 5.313.492 10.626.582 15.939-.045 5.313-.09 10.626-.537 15.939-.179 2.09-2.102 3.658-4.25 3.484-1.923-.174-3.444-1.655-3.578-3.484m-16.729-.001c-.448-5.312-.492-10.625-.582-15.938.045-5.313.09-10.626.537-15.94.179-2.09 2.102-3.657 4.25-3.483 1.923.174 3.444 1.655 3.578 3.484.447 5.313.492 10.626.581 15.939-.044 5.313-.09 10.626-.537 15.939-.178 2.09-2.102 3.658-4.249 3.484-1.923-.174-3.444-1.655-3.578-3.484"/>
</svg>
