<svg xmlns="http://www.w3.org/2000/svg" height="1em" fill="currentColor" viewBox="0 0 105 105">
    <path d="M101.241 45.983a50 50 0 0 1 0 14.843c-.61 3.52-5.962 3.477-6.528 0a50 50 0 0 1 0-14.843c.305-1.74 2.045-2.927 3.83-2.63a3.35 3.35 0 0 1 2.698 2.63M91.492 62.31V40.512c.348-6.616-5.744-12.85-12.62-12.68l-20.148-.085-11.227-.085-28.286-.127c-2.785 0-6.397-.17-8.92 1.23-4.7 2.035-7.746 7.21-7.485 12.129v25.445c-.261 6.786 6.048 13.19 13.098 12.935l20.192-.085h11.227l28.242-.17h3.873c5.092-.211 9.835-3.731 11.445-8.481 1-2.672.479-5.64.61-8.228m-40.6-27.735h6.788l21.192-.128c3.22-.084 6.136 2.672 6.006 6.065v25.403c.087 2.714-1.132 4.75-3.482 5.895-.348.594-13.794.636-28.416.509-2.437 0-4.874 0-7.31-.085-.828.976-1.61 1.951-2.438 2.927.175-.68.305-1.315.436-1.824 0-.043.087-.424.217-1.103-2.35 0-4.613-.042-6.788-.042-11.097-.127-20.149-.255-21.193-.127-3.046.042-5.744-2.587-5.57-5.726 0-4.792.087-17.218 0-21.798 0-.848-.087-4.283.043-5.004.262-2.545 2.611-4.665 5.266-4.75h3.525l22.498-.17h7.354l2.437-2.968"/>
    <path d="m53.764 20.113-6.267 7.548 11.228.085c.304-1.866.565-3.69.74-5.046.74-3.224-3.743-5.174-5.701-2.587m17.058 23.749s-8.92-.467-14.404-.764l1.262-8.481v-.085h-6.788c-.74 3.265-2.96 12.638-2.698 12.426.087 1.95 1.827 3.477 3.873 3.392l12.315-.636-12.01 14.504a651 651 0 0 0-6.702 8.016c2.437.042 4.874.085 7.31.085 1.393-1.654 2.699-3.266 3.874-4.666l16.014-19.296c1.436-1.654.217-4.495-2.046-4.495m-33.725 28.33c2.176 0 4.439.042 6.789.042.783-3.266 3.002-12.68 2.698-12.384-.13-1.95-1.872-3.477-3.83-3.35l-12.402.593 18.712-22.519H41.71L21.953 58.451c-1.566 1.738-.13 4.58 2.176 4.537l14.23.721c-.392 2.587-.87 5.726-1.262 8.482m-1.74 12.001c-.697 3.054 3.524 5.047 5.57 2.63 1.827-2.206 4.09-4.878 6.396-7.677H36.096c-.261 1.612-.61 3.817-.74 5.047"/>
</svg>
