<svg xmlns="http://www.w3.org/2000/svg" height="1em" fill="currentColor" viewBox="0 0 105 105">
    <path d="M37.144 40.292s34.123 23.026 34.167 23.069c2.35 1.535 2.307 5.117-.087 6.566L50.68 83.018c-2.089 1.407-5.135-.17-5.135-2.6-.436-9.297-.48-18.55-.566-27.845.043-9.296.087-18.592.566-27.888.043-2.473 3.09-3.965 5.135-2.6l20.587 13.09c2.394 1.45 2.438 5.074.131 6.567L37.231 64.81c-1.48 1.023-3.525.64-4.526-.81-1.001-1.408-.653-3.327.74-4.35l32.948-24.433v6.61l-19.5-14.499 5.137-2.6c.435 9.295.478 18.548.522 27.844-.044 9.295-.087 18.548-.522 27.844l-5.136-2.6 19.542-14.499v6.61L33.314 45.451c-3.308-2.474.348-7.505 3.83-5.203z"/>
</svg>
