<svg xmlns="http://www.w3.org/2000/svg" width="auto" height="1em" fill="currentColor" viewBox="0 0 105 105">
    <path d="M61.54 86.916H44.542c-11.585 0-20.978-9.335-20.978-20.75v-26.5c0-11.415 9.438-20.75 20.978-20.75H61.54c11.585 0 20.979 9.335 20.979 20.75v26.456c0 11.459-9.439 20.75-20.979 20.75zM44.542 26.658c-7.246 0-13.15 5.84-13.15 13.008v26.456c0 7.168 5.904 13.007 13.15 13.007H61.54c7.246 0 13.15-5.84 13.15-13.007V39.666c0-7.168-5.904-13.008-13.15-13.008z"/>
    <path d="M48.881 35.241a3.7 3.7 0 0 0-1.342-1.017c-1.029-.531-2.326-.487-3.355 0-.536.22-1.028.619-1.386 1.017-4.608 5.31-15.343 18.892-15.343 29.642 0 2.7.447 5.132 1.208 7.3.94 2.433 2.326 4.557 4.16 6.238 3.176 2.92 7.604 4.557 12.972 4.557s9.796-1.637 12.927-4.557c1.879-1.68 3.265-3.805 4.16-6.282.805-2.168 1.208-4.557 1.208-7.256 0-10.795-10.691-24.333-15.298-29.686zM45.84 77.714h-.18c-6.799-.045-10.735-7.699-7.201-13.45 1.61-2.566 3.4-5.176 5.278-7.565 1.074-1.372 3.131-1.372 4.16 0 1.879 2.389 3.668 4.999 5.278 7.565 3.534 5.751-.402 13.405-7.201 13.45h-.18zm3.041-28.227a3.7 3.7 0 0 0-1.342-1.018 4.04 4.04 0 0 0-3.355 0c-.536.222-1.028.62-1.386 1.018-2.371 2.743-6.486 7.742-9.796 13.45.85-6.017 5.591-13.848 10.735-20.44 1.029-1.327 3.087-1.327 4.16 0 5.1 6.592 9.796 14.379 10.69 20.44-3.354-5.708-7.335-10.663-9.75-13.406z"/>
    <path d="M64.448 22.765q1.14 30.129 0 60.258c-.09 2.124-1.924 3.805-4.071 3.716-2.058-.088-3.623-1.725-3.757-3.716a796 796 0 0 1 0-60.258c.223-4.822 7.604-4.822 7.828 0"/>
</svg>
