<svg xmlns="http://www.w3.org/2000/svg" height="1em" fill="currentColor" viewBox="0 0 105 105">
    <path d="M56.396 68.102c-1.293 0-2.481-.734-3.11-1.887L44.654 49.72l-1.293 2.725a3.51 3.51 0 0 1-3.145 1.992H27.495A3.505 3.505 0 0 1 24 50.943a3.505 3.505 0 0 1 3.495-3.495h10.484l3.32-7.06c.559-1.187 1.747-1.991 3.075-1.991 1.328-.035 2.551.699 3.18 1.887l8.632 16.425 3.076-6.71a3.51 3.51 0 0 1 3.18-2.027H73.8a3.505 3.505 0 0 1 3.494 3.495 3.505 3.505 0 0 1-3.494 3.495h-9.087l-5.102 11.113a3.46 3.46 0 0 1-3.075 2.027z"/>
    <path d="m65.657 60.66 11.078-11.708v4.928L65.656 42.172a3.08 3.08 0 0 1 .105-4.333c1.189-1.119 3.04-1.119 4.194 0l11.707 11.078c1.433 1.328 1.398 3.6 0 4.927L69.955 64.923c-2.83 2.656-6.99-1.503-4.333-4.334z"/>
</svg>
