<svg xmlns="http://www.w3.org/2000/svg" height="1em" fill="currentColor" viewBox="0 0 105 105">
    <path d="M39.369 77.222c-13.442-7.827-17.112-21.632-9.346-35.178C37.79 28.498 60.065 19.64 69.368 16.328a5.4 5.4 0 0 1 2.347-.302c1.579.13 3.115 1.033 4.054 2.366.427.602.768 1.376.896 2.193 1.792 9.762 5.163 33.93-2.432 47.219-7.596 13.288-21.465 17.244-34.864 9.418m31.066-48.38a3.633 3.633 0 0 0-4.993-2.924C53.366 30.906 40.905 38.13 36.51 45.828c-5.676 9.891-3.2 19.18 6.614 24.857 9.815 5.72 19.032 3.225 24.665-6.666 4.395-7.655 4.353-22.19 2.646-35.177m1.493-5.419h-.042z"/>
    <path d="M56.14 54.43 40.008 84.746c-2.816 5.075-10.327.731-7.382-4.3l18.008-29.243c2.133-3.483 7.467-.387 5.547 3.225z"/>
</svg>
