<svg xmlns="http://www.w3.org/2000/svg" height="1em" fill="currentColor" viewBox="0 0 105 105">
    <path d="M57.853 18.96a5.6 5.6 0 0 0-1.945-1.422c-1.502-.732-3.359-.689-4.818-.043a5.6 5.6 0 0 0-1.989 1.465C42.471 26.543 27 45.758 27 61.096c0 3.834.619 7.281 1.768 10.383 1.326 3.49 3.36 6.506 6.012 8.875 4.553 4.18 10.962 6.506 18.697 6.506 7.736 0 14.1-2.326 18.654-6.506 2.696-2.412 4.73-5.428 6.011-8.961 1.15-3.059 1.768-6.506 1.768-10.297 0-15.338-15.426-34.553-22.057-42.136m-4.376 60.403h-.22c-9.814-.086-15.516-10.943-10.388-19.086 2.298-3.662 4.906-7.324 7.602-10.77 1.503-1.94 4.465-1.94 6.012 0 2.696 3.446 5.304 7.065 7.603 10.77 5.127 8.143-.575 19.043-10.388 19.087zm4.376-40.153c-.53-.647-1.237-1.12-1.945-1.465-1.502-.69-3.359-.69-4.818 0a5.6 5.6 0 0 0-1.989 1.465c-3.448 3.92-9.326 11.029-14.1 19.129 1.237-8.574 8.089-19.69 15.47-29.082 1.503-1.895 4.465-1.895 6.012 0 7.382 9.35 14.145 20.465 15.427 29.039-4.818-8.1-10.609-15.166-14.057-19.086"/>
</svg>
