<svg xmlns="http://www.w3.org/2000/svg" width="auto" height="1em" fill="currentColor" viewBox="0 0 105 105">
    <path d="M53.017 27.623c13.441 0 24.411 11.141 24.411 24.793s-10.97 24.793-24.411 24.793-24.412-11.141-24.412-24.793 10.97-24.793 24.412-24.793m0-7.707c-17.692 0-32 14.533-32 32.5 0 17.968 14.308 32.5 32 32.5 17.69 0 32-14.532 32-32.5 0-17.967-14.353-32.5-32-32.5"/>
    <path d="M63.857 61.884c2.558-6.826 2.558-12.154 0-18.936-.694-1.498 0-3.347 1.56-3.92a2.95 2.95 0 0 1 2.516.265c4.162 2.73 6.547 7.97 6.547 13.123s-2.385 10.437-6.547 13.123c-1.301.837-3.036.485-3.86-.837-.563-.88-.563-1.893-.173-2.818zm-21.68-18.936c-2.559 6.825-2.559 12.154 0 18.936.693 1.497 0 3.347-1.561 3.92a2.95 2.95 0 0 1-2.515-.265c-4.163-2.73-6.548-7.97-6.548-13.123s2.385-10.437 6.548-13.123c1.3-.837 3.035-.485 3.859.836.563.881.563 1.894.173 2.819zm10.84 19.376c-2.602 0-5.073-1.013-6.895-2.906-1.82-1.894-2.861-4.36-2.861-7.002a9.87 9.87 0 0 1 1.647-5.505 9.9 9.9 0 0 1 4.38-3.655c1.778-.749 3.729-.925 5.637-.573a9.7 9.7 0 0 1 4.986 2.73 9.9 9.9 0 0 1 2.688 5.065c.39 1.894.174 3.875-.563 5.725a10 10 0 0 1-3.6 4.448 9.5 9.5 0 0 1-5.42 1.673m0-13.211a3.1 3.1 0 0 0-1.258.264 3.2 3.2 0 0 0-1.43 1.19 3.44 3.44 0 0 0-.564 1.849c0 .88.347 1.717.954 2.334 1.084 1.1 2.861 1.277 4.119.396.52-.352.954-.88 1.214-1.453.26-.617.304-1.277.173-1.894a3.3 3.3 0 0 0-.91-1.717c-.477-.44-1.04-.793-1.648-.925-.217 0-.433-.044-.65-.044"/>
</svg>
