<svg xmlns="http://www.w3.org/2000/svg" height="1em" fill="currentColor" viewBox="0 0 105 105">
    <path d="M61.274 61.897c2.559-7.003 2.559-12.57 0-19.572-1.258-2.559 1.72-5.342 3.901-3.726 8.432 5.701 8.432 21.323 0 27.024-2.223 1.661-5.16-1.212-3.9-3.726"/>
    <path d="M70.041 71.144c7.257-11.94 7.257-26.17 0-38.112-1.72-2.558 1.594-5.79 3.818-3.815 13.213 10.594 13.213 35.194 0 45.788-2.266 1.975-5.496-1.302-3.818-3.816zM44.243 42.28c-2.559 7.002-2.559 12.569 0 19.572 1.258 2.558-1.72 5.342-3.901 3.725-8.432-5.7-8.432-21.322 0-27.023 2.223-1.661 5.16 1.212 3.901 3.725"/>
    <path d="M35.518 33.032c-7.257 11.941-7.257 26.171 0 38.112 1.72 2.559-1.594 5.791-3.818 3.816-13.213-10.594-13.213-35.194 0-45.788 2.266-1.975 5.496 1.302 3.818 3.815zm12.668 19.034c0-.988.252-1.93.755-2.693a4.55 4.55 0 0 1 2.056-1.796 4.46 4.46 0 0 1 2.642-.27c.881.18 1.678.674 2.35 1.347a5.04 5.04 0 0 1 1.258 2.514c.168.943.084 1.93-.252 2.828a4.73 4.73 0 0 1-1.678 2.2 4.33 4.33 0 0 1-2.517.808 4.3 4.3 0 0 1-3.23-1.437c-.839-.898-1.342-2.154-1.342-3.456z"/>
</svg>
