<svg xmlns="http://www.w3.org/2000/svg" height="1em" fill="currentColor" viewBox="0 0 105 105">
    <path d="M86.178 55.726C88.263 55.726 90 54.056 90 52s-1.737-3.769-3.822-3.769h-5.037v-5.695h5.037c2.085 0 3.822-1.67 3.822-3.726s-1.737-3.768-3.822-3.768h-6.6c-1.912-4.368-5.473-7.837-9.859-9.721v-6.553c0-2.055-1.694-3.768-3.778-3.768s-3.822 1.713-3.822 3.768v4.968H56.3v-4.968c0-2.055-1.693-3.768-3.777-3.768S48.7 16.713 48.7 18.768v4.968h-5.776v-4.968c0-2.055-1.694-3.768-3.778-3.768s-3.822 1.713-3.822 3.768v6.553c-4.43 1.884-7.947 5.353-9.858 9.72h-6.644c-2.085 0-3.822 1.67-3.822 3.726s1.737 3.769 3.822 3.769h5.037v5.695h-5.037c-2.085 0-3.822 1.67-3.822 3.726s1.737 3.769 3.822 3.769h5.037v5.738h-5.037c-2.085 0-3.822 1.67-3.822 3.726s1.737 3.768 3.822 3.768h6.644a18.88 18.88 0 0 0 9.858 9.721v6.552c0 2.056 1.694 3.769 3.779 3.769s3.821-1.713 3.821-3.769v-5.01H48.7v5.01c0 2.056 1.694 3.769 3.778 3.769s3.822-1.713 3.822-3.769v-5.01h5.82v5.01c0 2.056 1.693 3.769 3.777 3.769s3.822-1.713 3.822-3.769V78.68c4.386-1.884 7.948-5.395 9.858-9.72h6.601c2.085 0 3.822-1.67 3.822-3.726s-1.737-3.769-3.822-3.769h-5.037v-5.738zm-12.637 5.78c0 2.87-1.086 5.482-2.91 7.452q-.39.515-.912.9c-1.997 1.798-4.647 2.869-7.556 2.869H42.88a11.4 11.4 0 0 1-7.557-2.827c-.347-.3-.651-.6-.955-.942-1.78-1.97-2.91-4.582-2.91-7.451V42.493c0-2.87 1.086-5.481 2.866-7.451.304-.343.652-.686 1-.985a11.4 11.4 0 0 1 7.556-2.827h19.282c2.91 0 5.559 1.114 7.556 2.87.348.3.652.6.956.942a11.07 11.07 0 0 1 2.866 7.451z"/>
    <path d="M57.082 65.533h-9.12c-5.038 0-9.164-4.069-9.164-9.036v-8.993c0-4.968 4.126-9.036 9.164-9.036h9.12c5.037 0 9.163 4.068 9.163 9.036v8.993c0 4.967-4.126 9.036-9.164 9.036m-9.12-23.211c-2.91 0-5.255 2.312-5.255 5.182v8.993c0 2.869 2.345 5.181 5.255 5.181h9.12c2.91 0 5.254-2.312 5.254-5.181v-8.993c0-2.87-2.345-5.182-5.254-5.182z"/>
</svg>
