<svg xmlns="http://www.w3.org/2000/svg" height="1em" fill="currentColor" viewBox="0 0 105 105">
    <path d="M61.74 80H42.26C31.663 80 23 71.679 23 61.404V42.596C23 32.322 31.619 24 42.26 24h19.524c10.597 0 19.26 8.322 19.26 18.596v18.85c0 10.233-8.619 18.596-19.26 18.596zM42.26 31.43c-6.376 0-11.52 5.01-11.52 11.123v18.851c0 6.156 5.188 11.124 11.52 11.124h19.524c6.376 0 11.52-5.01 11.52-11.124V42.596c0-6.156-5.188-11.124-11.52-11.124H42.26z"/>
    <path d="M61.784 57.158c2.963 0 5.365-2.319 5.365-5.18s-2.402-5.18-5.365-5.18-5.365 2.32-5.365 5.18c0 2.861 2.402 5.18 5.365 5.18m-19.568 0c2.963 0 5.365-2.319 5.365-5.18s-2.402-5.18-5.365-5.18-5.364 2.32-5.364 5.18c0 2.861 2.401 5.18 5.364 5.18"/>
</svg>
