<svg xmlns="http://www.w3.org/2000/svg" height="1em" fill="currentColor" viewBox="0 0 105 105">
    <path d="m51.21 61.449 16.8-13.087-1.698 3.377.522-15.915c.087-2.027 1.828-3.631 3.917-3.589 2.002.085 3.613 1.647 3.7 3.589l.522 15.915c.044 1.351-.61 2.575-1.654 3.335 0 .043-17.496 12.2-17.496 12.285-3.96 2.744-8.4-2.913-4.613-5.868z"/>
    <path d="M51.21 70.399 33.714 58.156c-1.132-.76-1.697-2.068-1.697-3.335l.522-15.915c.087-2.027 1.828-3.631 3.917-3.589 2.002.085 3.612 1.647 3.7 3.589l.522 15.915-1.698-3.377 16.8 13.087c3.786 2.955-.653 8.612-4.614 5.868z"/>
    <path d="M57.303 31.56c.74 13.678.74 27.398 0 41.076-.13 2.026-1.958 3.588-4.047 3.462-1.959-.127-3.439-1.647-3.57-3.462-.434-6.839-.478-13.678-.521-20.517.043-6.84.087-13.678.522-20.517.13-2.027 1.958-3.589 4.047-3.462 1.959.127 3.439 1.646 3.57 3.462z"/>
</svg>
