<svg xmlns="http://www.w3.org/2000/svg" width="auto" height="1em" fill="currentColor" viewBox="0 0 124 124">
    <path d="M69.75 52.015a21.46 21.46 0 0 0 0-17.068 2.6 2.6 0 0 1-.145-1.582c.117-.53.398-1.009.801-1.368a2.53 2.53 0 0 1 2.98-.292 14.7 14.7 0 0 1 4.217 5.184 14.88 14.88 0 0 1 0 13.066 14.7 14.7 0 0 1-4.217 5.184 2.53 2.53 0 0 1-2.98-.292 2.6 2.6 0 0 1-.801-1.367 2.6 2.6 0 0 1 .145-1.583z"/>
    <path d="M77.835 60.06a30 30 0 0 0 4.99-16.58 30 30 0 0 0-4.99-16.58 2.48 2.48 0 0 1 .35-3.183 2.42 2.42 0 0 1 3.17-.136 26.1 26.1 0 0 1 6.736 8.934 26.3 26.3 0 0 1 2.393 10.965 26.3 26.3 0 0 1-2.393 10.965 26.1 26.1 0 0 1-6.736 8.935 2.42 2.42 0 0 1-3.17-.137 2.48 2.48 0 0 1-.35-3.184M54.044 34.947a21.78 21.78 0 0 0 0 17.068 2.56 2.56 0 0 1-.6 2.977 2.496 2.496 0 0 1-2.998.264 14.7 14.7 0 0 1-4.234-5.178 14.84 14.84 0 0 1 0-13.077 14.7 14.7 0 0 1 4.235-5.178 2.496 2.496 0 0 1 2.997.264 2.56 2.56 0 0 1 .6 2.977z"/>
    <path d="M45.998 26.94a29.85 29.85 0 0 0-5.021 16.58 29.85 29.85 0 0 0 5.021 16.579 2.52 2.52 0 0 1-.445 3.118 2.46 2.46 0 0 1-3.113.202 26 26 0 0 1-6.76-8.942 26.3 26.3 0 0 1-2.394-10.986 26.3 26.3 0 0 1 2.416-10.981 26 26 0 0 1 6.776-8.93 2.42 2.42 0 0 1 3.247.092 2.477 2.477 0 0 1 .274 3.268M57.68 43.46a4.3 4.3 0 0 1 .736-2.343 4.15 4.15 0 0 1 1.973-1.562 4.2 4.2 0 0 1 2.398-.234 3.85 3.85 0 0 1 2.166 1.171c.59.583.995 1.331 1.16 2.148a4.3 4.3 0 0 1-.266 2.474 4.25 4.25 0 0 1-1.59 1.9c-.7.467-1.522.711-2.36.704a4.1 4.1 0 0 1-1.615-.32 4.1 4.1 0 0 1-1.363-.93 4.32 4.32 0 0 1-1.238-3.008m7.62 15.467c.387 6.327.426 12.654.465 18.982.038 6.327 0 12.693-.465 19.02a3.45 3.45 0 0 1-1.109 2.19 3.4 3.4 0 0 1-2.275.881c-.84 0-1.65-.313-2.276-.88a3.45 3.45 0 0 1-1.11-2.19c-.425-6.328-.425-12.655-.502-19.022s0-12.654.503-18.981a3.43 3.43 0 0 1 1.134-2.362 3.36 3.36 0 0 1 2.463-.84c.82.062 1.592.42 2.174 1.007a3.5 3.5 0 0 1 .998 2.195"/>
</svg>
